<!DOCTYPE svg PUBLIC "-//W3C//DTD SVG 20010904//EN" "http://www.w3.org/TR/2001/REC-SVG-20010904/DTD/svg10.dtd">
<svg version="1.0" xmlns="http://www.w3.org/2000/svg" width="1200px" height="494px" viewBox="0 0 12000 4940" preserveAspectRatio="xMidYMid meet">
<g id="layer101" fill="#202020" stroke="none">
<path d="M0 2470 l0 -2470 6000 0 6000 0 0 2470 0 2470 -6000 0 -6000 0 0 -2470z"/>
</g>
<g id="layer102" fill="#282828" stroke="none">
<path d="M0 2470 l0 -2470 6000 0 6000 0 0 2470 0 2470 -1397 0 c-769 0 -1503 -3 -1631 -7 l-233 -6 6 -28 c6 -24 3 -29 -19 -35 -25 -6 -26 -10 -26 -71 0 -40 -4 -62 -10 -58 -5 3 -10 15 -10 25 0 10 -8 21 -17 23 -14 4 -13 5 4 6 20 1 22 5 16 51 -6 49 -5 50 21 50 21 0 26 5 26 25 l0 25 -2819 0 c-1550 0 -2853 -3 -2895 -7 -63 -5 -76 -9 -74 -22 2 -9 12 -16 23 -16 11 0 21 -8 23 -17 2 -10 -2 -18 -8 -18 -6 0 -8 -6 -4 -12 14 -24 -5 -2 -30 35 -14 21 -26 42 -26 47 0 6 -539 10 -1460 10 l-1460 0 0 -2470z m3070 2415 c0 -38 3 -45 20 -45 11 0 20 -7 20 -15 0 -10 -10 -15 -29 -15 -32 0 -72 39 -70 69 0 9 3 11 5 4 9 -20 34 -2 34 23 0 13 5 24 10 24 6 0 10 -20 10 -45z m2165 1 c-6 -29 -12 -36 -31 -36 -17 0 -24 6 -24 20 0 15 7 20 25 20 19 0 25 5 25 22 0 12 3 19 6 16 3 -3 2 -22 -1 -42z m135 29 c0 -11 -11 -15 -40 -15 -33 0 -40 -3 -40 -20 0 -19 7 -20 114 -20 96 0 115 3 120 16 9 22 6 24 -42 26 -28 1 -42 6 -42 15 0 9 17 13 60 13 53 0 60 -2 60 -20 0 -13 7 -20 20 -20 11 0 20 -7 20 -15 0 -9 9 -15 25 -15 19 0 25 5 25 21 0 16 -5 20 -20 16 -15 -4 -20 0 -20 14 0 14 7 19 25 19 18 0 25 -5 25 -20 0 -19 7 -20 95 -20 87 0 95 -2 95 -19 0 -11 -9 -21 -23 -25 -12 -3 -141 -5 -287 -4 l-265 0 4 44 3 44 44 0 c32 0 44 -4 44 -15z m-43 -32 c-4 -3 -10 -3 -14 0 -3 4 0 7 7 7 7 0 10 -3 7 -7z m803 -3 c0 -5 -12 -12 -27 -16 -16 -3 -32 -7 -38 -8 -5 -2 -8 -19 -7 -39 l4 -37 -96 0 c-57 0 -96 -4 -96 -10 0 -6 43 -10 110 -10 67 0 110 -4 110 -10 0 -6 -47 -10 -120 -10 -112 0 -120 1 -120 19 0 11 -8 22 -17 24 -10 3 11 6 47 7 173 5 165 3 168 28 3 20 -1 22 -42 22 -34 0 -46 -4 -49 -17 -3 -10 -5 1 -6 25 l-1 42 90 0 c52 0 90 -4 90 -10z m152 -12 c3 -20 10 -23 50 -26 39 -3 47 -6 50 -25 2 -17 12 -23 43 -28 22 -3 32 -7 23 -8 -14 -1 -18 -10 -18 -36 0 -32 2 -35 30 -35 20 0 30 5 30 15 0 8 7 15 15 15 8 0 15 -9 15 -20 0 -11 -7 -20 -15 -20 -8 0 -15 -7 -15 -15 0 -8 7 -15 15 -15 8 0 14 6 13 13 -2 7 9 13 25 15 23 3 27 0 27 -22 0 -24 -3 -26 -44 -26 -39 0 -45 3 -48 23 -3 19 -10 22 -50 25 -39 3 -48 7 -48 22 0 15 -9 20 -47 23 -40 3 -37 4 20 5 49 2 67 6 67 16 0 17 -42 26 -64 14 -13 -7 -16 -4 -16 20 0 27 -4 30 -36 34 -20 2 -43 -1 -52 -9 -9 -7 -43 -13 -76 -13 -51 0 -57 2 -46 15 8 9 30 15 56 15 40 0 44 2 44 25 0 34 47 37 52 3z m2768 -27 c-11 -23 -23 -41 -26 -41 -3 0 -2 5 1 10 3 6 -1 10 -9 10 -9 0 -16 7 -16 15 0 9 9 15 24 15 16 0 27 7 31 21 4 11 9 18 12 16 2 -3 -5 -23 -17 -46z m-6031 -57 c5 -7 7 -14 4 -18 -3 -3 2 -8 11 -12 9 -3 16 -12 16 -20 0 -29 -17 -12 -43 44 -15 31 -21 48 -13 37 9 -11 20 -25 25 -31z m3261 -34 c0 -6 -30 -10 -70 -10 -60 0 -70 -3 -71 -17 -1 -17 -2 -17 -6 0 -2 9 -12 17 -21 17 -15 0 -15 2 -2 10 20 13 170 13 170 0z m2679 -64 c-27 -42 -49 -66 -61 -66 -10 0 -18 6 -18 14 0 9 7 12 18 9 12 -3 25 4 36 21 9 14 12 26 6 26 -19 0 -10 21 14 29 13 5 26 17 30 27 4 9 9 15 12 12 2 -3 -14 -35 -37 -72z m-5830 58 l31 -6 0 -69 c0 -62 2 -69 19 -69 12 0 21 8 24 23 2 12 4 -3 4 -33 0 -30 -2 -43 -4 -27 -4 27 -26 37 -38 17 -10 -16 -28 -12 -21 5 4 10 -1 15 -14 15 -18 0 -18 -2 -5 -41 8 -23 15 -47 14 -53 0 -6 -9 12 -18 39 -21 57 -18 75 10 68 17 -5 19 0 19 46 0 39 -4 51 -15 51 -8 0 -15 -4 -15 -10 0 -11 -30 -14 -30 -2 0 4 -3 17 -6 30 -7 24 -3 25 45 16z m2673 -19 c-3 -16 -11 -25 -23 -25 -28 0 -25 37 4 43 12 2 23 5 23 6 1 0 -1 -10 -4 -24z m2883 -6 c8 -25 1 -34 -20 -26 -19 8 -20 47 -1 47 8 0 18 -9 21 -21z m-5610 -61 c21 -43 22 -48 6 -28 -20 24 -44 80 -36 80 3 0 16 -24 30 -52z m2672 46 c-3 -3 -12 -4 -19 -1 -8 3 -5 6 6 6 11 1 17 -2 13 -5z m80 -1 c-4 -3 -10 -3 -14 0 -3 4 0 7 7 7 7 0 10 -3 7 -7z m540 0 c-4 -3 -10 -3 -14 0 -3 4 0 7 7 7 7 0 10 -3 7 -7z m2303 -58 c0 -14 -4 -25 -10 -25 -5 0 -10 11 -10 25 0 14 5 25 10 25 6 0 10 -11 10 -25z m-47 -2 c-13 -2 -24 -13 -26 -26 -4 -18 -5 -17 -6 6 -1 23 3 27 27 26 22 -1 23 -2 5 -6z m275 -63 c-5 -17 -14 -33 -20 -36 -6 -4 -5 3 1 15 10 17 9 21 -4 21 -23 0 -18 18 8 23 12 2 23 5 24 6 1 0 -3 -13 -9 -29z m-320 -38 c-14 -3 -18 -14 -18 -51 0 -47 -1 -48 -27 -43 -26 5 -26 4 -19 -37 5 -33 3 -41 -9 -41 -8 0 -15 7 -15 15 0 8 -7 15 -16 15 -14 0 -16 -8 -11 -47 5 -48 -7 -73 -36 -73 -10 0 -16 -16 -20 -51 -7 -59 -6 -56 -32 -61 -17 -3 -20 3 -22 42 -1 25 1 37 4 28 7 -28 45 -23 43 5 -5 52 0 67 20 67 13 0 20 7 20 20 0 25 -27 27 -34 3 -4 -14 -4 -13 -3 2 2 13 10 20 24 19 17 0 21 5 20 25 -2 20 3 27 21 29 16 3 22 10 22 28 0 19 5 24 24 24 20 0 24 6 30 41 4 22 4 44 2 48 -3 5 7 6 22 3 19 -4 22 -7 10 -10z m-5330 -39 c-10 -2 -26 -2 -35 0 -10 3 -2 5 17 5 19 0 27 -2 18 -5z m-68 -85 l-1 -43 -19 49 c-21 52 -18 75 6 52 8 -8 14 -33 14 -58z m106 42 c6 0 14 -22 18 -50 5 -40 10 -50 26 -50 15 0 19 -8 22 -47 3 -41 6 -48 26 -51 17 -3 22 -10 22 -33 0 -19 -5 -29 -15 -29 -8 0 -15 7 -15 15 0 8 -7 15 -16 15 -26 0 -46 27 -38 52 4 13 12 26 18 30 6 5 0 8 -14 8 -31 0 -61 19 -42 27 7 3 12 24 12 55 l0 50 -30 -7 c-24 -5 -30 -3 -30 10 0 13 6 16 23 11 12 -3 27 -6 33 -6z m5474 -65 c0 -8 -4 -15 -10 -15 -5 0 -10 7 -10 15 0 8 5 15 10 15 6 0 10 -7 10 -15z m12 -47 c-19 -34 -37 -54 -51 -56 -15 -2 -21 2 -20 15 0 10 3 13 6 6 9 -25 28 -12 56 37 16 28 31 50 34 50 3 0 -8 -24 -25 -52z m-49 -83 c-3 -9 -8 -14 -10 -11 -3 3 -2 9 2 15 9 16 15 13 8 -4z m-5479 -24 c3 8 5 5 2 -7 -2 -12 1 -29 7 -39 7 -13 6 -16 -2 -11 -6 4 -18 23 -26 43 -18 44 -19 56 -1 24 10 -18 15 -21 20 -10z m5076 -81 c-13 -8 -13 -12 -1 -32 10 -16 10 -23 2 -26 -6 -2 -9 -15 -6 -30 3 -15 2 -20 -1 -12 -4 8 -11 18 -16 21 -5 3 -6 24 -2 47 5 29 11 42 23 42 14 0 14 -2 1 -10z m280 -106 c-61 -102 -93 -144 -106 -144 -4 0 1 9 11 20 10 11 13 20 7 20 -16 0 -15 18 2 36 11 11 16 11 20 1 3 -8 9 -6 20 7 20 25 20 36 1 36 -8 0 -15 7 -15 16 0 12 6 15 25 10 20 -5 27 -1 40 24 14 27 14 30 0 30 -8 0 -15 5 -15 11 0 6 8 8 19 4 14 -4 23 0 31 15 6 12 14 20 16 17 2 -2 -23 -48 -56 -103z m-5290 23 c0 -4 5 -5 10 -2 6 3 10 -1 10 -10 0 -9 7 -29 16 -45 12 -20 22 -26 37 -22 17 4 19 1 15 -16 -4 -12 -2 -22 3 -22 6 0 9 -6 8 -12 -3 -26 1 -39 11 -33 6 3 10 -1 10 -9 0 -8 7 -19 16 -24 9 -5 15 -12 15 -15 -3 -20 0 -27 12 -27 6 0 18 -13 25 -30 8 -16 20 -30 28 -30 8 0 14 -4 14 -9 0 -20 53 -71 73 -71 11 0 17 -3 14 -7 -9 -9 33 -54 44 -47 5 3 9 -2 9 -10 0 -16 10 -20 43 -17 11 2 17 -5 17 -17 0 -11 10 -27 23 -36 19 -15 18 -15 -10 0 -18 10 -29 22 -26 27 4 6 1 7 -6 2 -8 -4 -28 7 -54 32 -23 22 -55 50 -72 62 -41 31 -114 118 -190 226 -59 85 -145 232 -111 191 9 -11 16 -24 16 -29z m190 -13 c0 -2 -13 -4 -30 -4 -16 0 -30 4 -30 8 0 5 14 7 30 4 17 -2 30 -6 30 -8z m1087 10 c-3 -3 -12 -4 -19 -1 -8 3 -5 6 6 6 11 1 17 -2 13 -5z m3693 -7 c15 4 20 0 20 -16 0 -12 -6 -21 -15 -21 -8 0 -15 -7 -15 -15 0 -8 -7 -15 -15 -15 -8 0 -15 5 -15 10 0 6 -4 10 -10 10 -5 0 -10 -16 -10 -35 0 -24 -5 -35 -15 -35 -17 0 -20 16 -5 25 6 3 10 24 10 46 0 32 4 41 23 48 12 5 23 5 25 1 2 -4 12 -6 22 -3z m-3722 -20 c2 -12 -4 -20 -17 -24 -11 -3 -22 -12 -24 -22 -3 -9 -5 3 -6 27 -1 39 1 43 21 40 13 -2 24 -11 26 -21z m-1068 -10 c0 -1 4 -17 9 -35 6 -20 6 -32 0 -32 -5 0 -9 9 -9 20 0 11 -7 20 -15 20 -8 0 -15 7 -15 15 0 8 7 15 15 15 8 0 15 -1 15 -3z m4690 -98 c0 -4 -6 -9 -13 -12 -10 -4 -13 2 -9 20 3 18 7 21 13 11 5 -7 9 -16 9 -19z m-4529 -15 c43 -6 50 -10 46 -25 -5 -17 2 -19 66 -21 48 -1 58 -3 30 -5 -35 -3 -43 -8 -43 -24 0 -27 -30 -24 -31 4 0 15 -2 17 -6 7 -12 -30 -63 -43 -63 -16 0 8 8 22 18 32 16 17 16 17 -7 11 -18 -4 -24 -1 -28 14 -7 25 -19 24 -26 -1 -3 -11 -11 -20 -17 -20 -8 0 -10 8 -6 23 3 12 6 31 7 42 1 17 2 17 6 3 3 -12 19 -19 54 -24z m-14 19 c-4 -3 -7 0 -7 7 0 7 3 10 7 7 3 -4 3 -10 0 -14z m4553 -80 c0 -8 -12 -13 -30 -13 -17 0 -30 5 -31 13 0 6 -5 -1 -9 -17 -5 -16 -7 -33 -4 -38 3 -4 0 -8 -5 -8 -6 0 -11 5 -11 10 0 20 -29 9 -32 -12 -2 -15 -11 -24 -25 -26 -15 -2 -23 -10 -23 -23 0 -11 -7 -19 -17 -19 -12 0 -14 3 -7 8 7 4 13 16 15 27 3 12 14 21 27 23 14 2 22 10 22 23 0 14 7 19 25 19 21 0 25 5 25 29 0 25 3 28 25 23 19 -3 25 0 25 14 0 17 1 16 15 -2 8 -10 15 -25 15 -31z m250 18 c0 -6 -4 -13 -10 -16 -5 -3 -10 1 -10 9 0 9 5 16 10 16 6 0 10 -4 10 -9z m3 -48 c-22 -26 -49 -62 -62 -80 -12 -18 -36 -42 -54 -53 l-32 -22 34 31 c25 22 34 39 35 63 1 27 5 33 22 31 14 -2 31 12 54 42 19 25 36 43 38 40 3 -2 -13 -26 -35 -52z m-4966 25 c-3 -8 -6 -5 -6 6 -1 11 2 17 5 13 3 -3 4 -12 1 -19z m400 -10 c-3 -8 -6 -5 -6 6 -1 11 2 17 5 13 3 -3 4 -12 1 -19z m13 -26 c-19 -2 -40 -8 -47 -14 -17 -14 -36 -1 -22 15 7 7 29 10 58 7 43 -4 44 -5 11 -8z m123 -36 c17 -4 27 -13 27 -25 0 -10 9 -21 20 -24 20 -5 29 -37 10 -37 -5 0 -10 7 -10 15 0 8 -9 15 -20 15 -11 0 -20 -4 -20 -10 0 -5 -7 -10 -15 -10 -10 0 -15 10 -15 31 0 22 -5 32 -19 36 -16 4 -17 8 -8 18 7 7 14 9 17 5 3 -4 17 -10 33 -14z m4024 -53 c-4 -3 -7 0 -7 7 0 7 3 10 7 7 3 -4 3 -10 0 -14z m277 0 c-5 -5 -12 -12 -16 -18 -4 -6 -8 -2 -8 8 0 9 7 17 17 17 9 0 12 -3 7 -7z m-4194 -24 c0 -17 5 -20 25 -17 18 4 26 0 30 -13 4 -11 13 -19 22 -19 9 0 13 6 9 15 -3 8 -1 15 4 15 6 0 10 -11 10 -25 0 -23 3 -25 50 -25 47 0 50 -2 50 -25 0 -19 5 -25 23 -26 15 -1 17 -3 6 -6 -10 -2 -19 -13 -22 -24 -8 -30 -35 -23 -42 11 -6 26 -11 30 -41 30 -30 0 -34 3 -34 25 0 18 -5 25 -20 25 -11 0 -20 6 -20 14 0 8 -16 16 -40 20 -31 5 -40 11 -40 26 0 11 7 20 15 20 9 0 15 -9 15 -21z m3857 -11 c-3 -7 -5 -2 -5 12 0 14 2 19 5 13 2 -7 2 -19 0 -25z m-47 -52 c0 -28 -4 -35 -25 -40 -14 -4 -25 -12 -25 -20 0 -9 -8 -12 -25 -8 -20 3 -25 0 -25 -16 0 -12 5 -24 10 -27 22 -14 10 -35 -20 -35 -20 0 -30 5 -30 15 0 8 -7 15 -15 15 -8 0 -15 -6 -15 -14 0 -14 -29 -26 -62 -26 -10 0 -18 4 -18 9 0 5 9 7 20 4 15 -4 20 0 20 16 0 21 18 26 77 21 15 -1 22 5 25 22 2 15 11 24 27 26 18 3 22 8 18 28 -4 21 0 24 24 24 22 0 29 5 29 20 0 11 2 20 5 20 3 0 5 -15 5 -34z m340 13 c-14 -11 -69 -49 -122 -84 -128 -83 -122 -80 -114 -66 4 6 21 18 37 26 25 13 28 19 19 35 -9 16 -8 20 5 20 8 0 15 -5 15 -11 0 -6 6 -9 13 -6 6 2 11 15 9 28 -2 17 0 20 6 11 7 -11 10 -11 15 2 4 9 17 16 31 16 13 0 32 3 41 6 13 5 14 8 3 15 -9 6 -3 9 17 10 26 0 27 2 10 9 -17 7 -16 9 10 9 l30 0 -25 -20z m-2562 -96 c3 -17 10 -23 28 -23 17 0 24 -5 24 -20 0 -13 7 -20 20 -20 15 0 20 -7 20 -24 0 -18 6 -25 23 -28 19 -3 22 -10 25 -50 3 -41 6 -48 25 -49 21 -1 20 -2 -3 -9 -39 -12 -50 -11 -50 5 0 8 6 15 13 15 8 0 7 4 -3 11 -11 8 -12 12 -2 16 6 2 12 16 12 29 0 17 -6 24 -20 24 -11 0 -20 -4 -20 -10 0 -5 -7 -10 -15 -10 -8 0 -15 5 -15 10 0 6 5 10 10 10 6 0 10 5 10 10 0 6 -7 10 -15 10 -8 0 -15 8 -16 18 0 10 -3 12 -6 5 -6 -15 -33 -17 -33 -3 0 6 5 10 10 10 19 0 10 38 -10 43 -12 3 -20 14 -20 26 0 18 -6 21 -40 21 -39 0 -40 -1 -40 -35 0 -28 -4 -35 -20 -35 -11 0 -20 5 -20 10 0 15 -62 12 -82 -4 -12 -9 -18 -27 -18 -55 0 -30 -4 -41 -15 -41 -8 0 -15 5 -15 10 0 6 -4 10 -10 10 -5 0 -10 -17 -11 -37 0 -21 -3 -32 -6 -25 -11 29 -30 8 -41 -48 -10 -47 -17 -60 -31 -60 -11 0 -21 7 -25 15 -4 11 1 15 19 15 30 0 36 36 8 43 -13 3 -11 5 6 6 20 1 22 5 17 26 -6 22 -3 25 19 25 20 0 25 5 25 25 0 20 5 25 26 25 20 0 25 5 24 23 -6 67 -6 67 70 67 61 0 70 2 70 18 0 28 10 33 55 30 33 -2 41 -7 43 -25z m-1327 -41 c-35 -16 -50 -11 -30 11 7 7 24 11 37 9 23 -5 23 -5 -7 -20z m3656 21 c-4 -3 -10 -3 -14 0 -3 4 0 7 7 7 7 0 10 -3 7 -7z m-2352 -25 c6 -4 2 -8 -7 -8 -10 0 -18 7 -18 17 0 9 3 12 8 7 4 -5 12 -12 17 -16z m-1233 -40 c2 -17 11 -24 31 -26 21 -3 27 -9 27 -28 0 -19 5 -24 26 -24 21 0 25 -4 23 -27 -5 -68 -2 -73 45 -73 39 0 44 -3 48 -25 3 -14 1 -25 -3 -25 -5 0 -9 5 -9 10 0 6 -23 10 -51 10 -46 0 -50 2 -44 20 6 19 -7 26 -37 21 -12 -2 -9 27 3 31 7 2 7 11 0 28 -7 19 -10 20 -10 7 -1 -30 -31 6 -31 37 0 14 -4 26 -10 26 -5 0 -10 -4 -10 -10 0 -5 -6 -10 -14 -10 -9 0 -15 14 -18 40 -3 33 0 40 14 40 10 0 18 -9 20 -22z m3186 17 c19 -3 32 -12 32 -20 0 -12 -14 -15 -60 -15 -33 0 -60 -4 -60 -10 0 -5 -12 -10 -27 -9 -16 0 -22 3 -15 6 6 2 12 13 12 22 0 10 2 20 4 22 8 7 80 10 114 4z m361 -18 c-2 -1 -17 -11 -34 -23 -16 -11 -46 -29 -65 -38 -34 -17 -35 -17 -14 2 12 10 24 27 26 38 3 15 11 18 35 17 18 -2 35 2 38 8 4 6 10 8 13 5 3 -3 3 -7 1 -9z m-3949 -51 c0 -15 47 -39 61 -31 5 4 9 2 9 -3 0 -5 10 -14 23 -20 13 -6 16 -11 7 -11 -8 0 -48 17 -89 38 -67 34 -71 38 -43 39 20 0 32 -4 32 -12z m3345 -26 c-3 -5 -15 -10 -26 -10 -11 0 -19 -7 -20 -17 -1 -17 -2 -17 -6 0 -6 23 -39 22 -46 -3 -3 -13 0 -20 9 -20 8 0 14 -9 14 -20 0 -11 -7 -20 -15 -20 -8 0 -15 7 -15 15 0 23 -60 20 -61 -2 0 -15 -2 -15 -9 2 -6 17 -8 14 -11 -15 -3 -25 -10 -36 -25 -40 -13 -3 -20 -12 -18 -22 1 -12 -4 -18 -17 -18 -10 0 -19 5 -19 10 0 6 5 10 10 10 6 0 10 11 10 24 0 18 6 25 23 28 14 2 23 11 25 26 2 14 10 22 24 22 11 0 22 8 25 19 4 16 17 21 62 26 49 5 79 10 89 14 2 0 0 -3 -3 -9z m-1508 -6 c-3 -3 -12 -4 -19 -1 -8 3 -5 6 6 6 11 1 17 -2 13 -5z m1933 -3 c22 -6 17 -10 -39 -29 -44 -15 -68 -19 -75 -12 -7 7 -1 10 16 10 38 0 57 10 51 26 -6 15 7 16 47 5z m-423 -27 c-3 -3 -12 -4 -19 -1 -8 3 -5 6 6 6 11 1 17 -2 13 -5z m264 -18 c-9 -11 -9 -15 2 -18 8 -1 -20 -17 -62 -35 -42 -18 -67 -26 -57 -18 11 8 23 15 27 15 4 0 5 9 2 20 -4 14 0 20 10 20 8 0 17 -4 19 -10 2 -5 13 -7 24 -4 15 4 20 11 17 25 -4 13 0 19 12 19 14 0 15 -3 6 -14z m-3064 -21 c1 -15 0 -15 -3 -3 -3 9 -13 19 -22 22 -12 3 -12 4 3 3 12 -1 21 -10 22 -22z m2590 19 c-3 -3 -12 -4 -19 -1 -8 3 -5 6 6 6 11 1 17 -2 13 -5z m-2886 -61 c4 1 7 -2 8 -6 0 -4 10 -17 23 -27 13 -11 19 -19 14 -20 -4 0 -31 20 -58 45 -28 25 -54 45 -60 45 -5 0 -7 4 -3 9 3 5 19 -3 37 -19 17 -16 35 -28 39 -27z m753 42 c3 -8 1 -15 -4 -15 -6 0 -10 7 -10 15 0 8 2 15 4 15 2 0 6 -7 10 -15z m26 0 c0 -8 -2 -15 -4 -15 -2 0 -6 7 -10 15 -3 8 -1 15 4 15 6 0 10 -7 10 -15z m896 -25 c25 0 31 -20 18 -54 -9 -23 -34 -20 -34 4 0 12 -7 20 -16 20 -11 0 -14 5 -10 16 3 9 7 25 7 37 2 22 2 22 6 0 3 -16 11 -23 29 -23z m-947 -22 c-1 -17 -2 -19 -6 -5 -2 9 -8 17 -13 17 -5 0 -11 -8 -13 -17 -4 -14 -5 -12 -6 5 -1 16 5 22 19 22 14 0 20 -6 19 -22z m1401 -3 c0 -20 5 -25 25 -25 25 0 25 -1 23 -70 -3 -67 -14 -90 -39 -74 -5 3 -9 -4 -9 -15 0 -16 -6 -21 -25 -21 -24 0 -25 3 -24 53 1 28 4 42 6 30 4 -19 11 -23 39 -23 34 0 34 0 34 45 0 38 -3 45 -19 45 -11 0 -26 3 -34 6 -11 4 -17 -2 -20 -23 -2 -15 -5 0 -6 35 -1 60 0 62 24 62 20 0 25 -5 25 -25z m-1090 -30 c0 -8 -7 -15 -15 -15 -16 0 -20 12 -8 23 11 12 23 8 23 -8z m738 -36 c24 -2 24 -2 5 -6 -15 -3 -23 -12 -24 -26 -2 -21 -2 -21 -6 2 -3 13 -13 26 -24 28 -24 7 -25 40 -1 45 11 2 18 -4 20 -19 2 -17 10 -23 30 -24z m-777 1 c5 0 9 -12 8 -27 l0 -28 -16 23 c-8 12 -24 22 -34 22 -15 0 -19 -7 -19 -35 0 -30 -3 -35 -24 -35 -13 0 -27 -6 -29 -12 -3 -7 -6 -1 -6 15 -1 22 3 27 23 27 18 0 25 6 28 23 2 14 11 23 26 25 14 2 22 11 23 25 2 22 2 22 6 0 2 -13 9 -23 14 -23z m1799 25 c0 -8 -9 -15 -20 -15 -15 0 -20 -7 -20 -25 0 -14 -4 -25 -10 -25 -5 0 -10 6 -10 14 0 8 -10 17 -22 19 -20 4 -19 4 5 6 20 1 27 6 27 21 0 15 7 20 25 20 16 0 25 -6 25 -15z m-2129 -28 c16 -4 19 -14 19 -71 0 -64 -1 -66 -25 -66 -26 0 -26 0 -23 88 1 48 3 80 5 71 2 -10 13 -19 24 -22z m-561 -24 c0 -7 13 -19 29 -28 17 -8 33 -20 36 -26 12 -18 -48 18 -90 55 l-40 35 33 -12 c17 -6 32 -17 32 -24z m340 -4 c0 -12 7 -19 19 -19 13 0 21 -8 23 -22 2 -15 11 -24 26 -26 19 -3 22 -9 22 -48 0 -39 3 -44 23 -45 l22 -2 -22 -4 c-13 -2 -23 -9 -23 -14 0 -5 -6 -9 -14 -9 -19 0 -27 60 -9 67 21 8 16 43 -7 43 -11 0 -23 7 -26 15 -4 8 -12 15 -20 15 -8 0 -14 7 -14 15 0 8 -4 15 -10 15 -5 0 -10 9 -10 20 0 11 -6 20 -14 20 -8 0 -17 4 -21 10 -3 5 7 5 25 -1 19 -7 30 -18 30 -30z m267 35 c-3 -3 -12 -4 -19 -1 -8 3 -5 6 6 6 11 1 17 -2 13 -5z m2354 -14 c-24 -11 -71 -39 -105 -63 -72 -51 -99 -66 -69 -39 12 11 19 22 16 26 -4 3 3 6 15 6 11 0 24 5 28 12 5 8 2 9 -9 5 -12 -5 -17 -1 -17 13 0 22 26 28 33 8 3 -10 17 -6 50 12 31 16 42 27 34 32 -7 4 5 8 28 8 l40 0 -44 -20z m-1231 -19 c0 -11 -7 -27 -16 -35 -20 -20 -45 -21 -38 -1 4 8 15 15 25 15 12 0 19 7 19 20 0 11 2 20 5 20 3 0 5 -9 5 -19z m870 -31 c0 -14 -7 -20 -22 -21 -13 0 -17 -3 -10 -6 6 -2 12 -12 11 -21 0 -11 -3 -12 -6 -5 -3 10 -9 9 -21 -3 -11 -11 -17 -13 -20 -5 -5 16 -22 14 -22 -3 0 -8 -4 -17 -9 -20 -4 -3 -6 6 -3 19 3 16 11 25 23 25 13 0 19 7 19 24 0 19 6 26 28 29 15 2 28 5 30 6 1 0 2 -8 2 -19z m-2490 -29 c0 -11 8 -21 18 -23 10 -2 13 -6 6 -10 -14 -9 -54 19 -54 38 0 8 7 14 15 14 8 0 15 -9 15 -19z m1660 -20 c0 -5 3 -16 6 -24 3 -9 -2 -20 -14 -26 -18 -9 -20 -7 -24 24 -3 29 -1 35 14 35 10 0 18 -4 18 -9z m-1580 -57 c0 -8 -7 -14 -16 -14 -11 0 -14 -6 -8 -22 10 -33 -1 -19 -19 23 l-14 35 28 -4 c16 -2 29 -11 29 -18z m2504 -39 c-58 -55 -79 -70 -53 -38 8 9 13 26 11 37 -2 16 -1 18 6 7 14 -19 31 -5 25 20 -5 17 -2 19 19 14 19 -5 27 -2 32 11 4 9 9 14 13 11 3 -4 -21 -31 -53 -62z m-2157 33 c-3 -8 -6 -5 -6 6 -1 11 2 17 5 13 3 -3 4 -12 1 -19z m1270 15 c-4 -3 -10 -3 -14 0 -3 4 0 7 7 7 7 0 10 -3 7 -7z m210 -15 c-3 -8 -6 -5 -6 6 -1 11 2 17 5 13 3 -3 4 -12 1 -19z m447 7 c-4 -8 -8 -15 -10 -15 -2 0 -4 7 -4 15 0 8 4 15 10 15 5 0 7 -7 4 -15z m-619 -26 c16 -3 21 -13 23 -52 3 -42 6 -47 27 -47 21 0 24 -5 27 -47 3 -41 6 -48 26 -51 13 -2 22 -10 22 -21 0 -13 10 -20 36 -24 44 -7 64 0 64 24 0 17 8 19 69 19 65 0 70 2 73 23 2 14 11 23 26 25 16 3 22 10 22 28 0 19 5 24 24 24 18 0 26 7 29 23 2 12 5 -2 6 -30 1 -41 -2 -53 -14 -53 -8 0 -14 3 -14 8 4 21 -2 42 -11 42 -6 0 -8 -11 -6 -25 3 -13 2 -24 -2 -24 -40 6 -52 -2 -52 -36 0 -24 -5 -35 -15 -35 -8 0 -15 5 -15 10 0 6 -25 10 -55 10 -48 0 -55 -2 -55 -20 0 -11 -4 -20 -10 -20 -5 0 -10 -7 -10 -15 0 -11 -12 -15 -50 -15 l-50 0 0 35 c0 34 -12 46 -25 25 -3 -5 -15 -10 -26 -10 -10 0 -19 5 -19 10 0 6 5 10 10 10 6 0 10 11 10 24 0 17 -7 26 -25 30 -14 4 -25 13 -25 21 0 8 -4 15 -10 15 -5 0 -10 14 -10 30 0 17 5 30 10 30 6 0 10 11 10 25 0 27 -18 32 -51 15 -13 -7 -19 -7 -19 0 0 5 5 10 10 10 6 0 10 8 10 18 0 11 3 13 8 6 4 -7 16 -13 27 -15z m-443 -14 c6 -14 17 -25 25 -25 7 0 16 -7 19 -15 4 -8 16 -15 29 -15 18 0 22 -6 22 -32 0 -18 -2 -25 -4 -15 -3 10 -14 17 -29 17 -19 0 -24 5 -24 25 0 25 -14 31 -64 25 -18 -2 -18 -1 -3 15 10 9 17 21 17 26 0 5 -41 9 -90 9 -84 0 -91 -2 -101 -22 l-10 -23 5 23 c4 21 1 22 -65 22 -61 0 -68 -2 -62 -17 4 -10 11 -21 17 -25 6 -4 -16 -7 -49 -6 -33 0 -50 3 -37 5 12 2 22 11 22 19 0 8 7 14 16 14 8 0 12 5 9 10 -4 7 55 10 170 10 l175 0 12 -25z m1098 15 c0 -5 -7 -10 -15 -10 -8 0 -15 5 -15 10 0 6 7 10 15 10 8 0 15 -4 15 -10z m-62 -7 c-11 -3 -18 -14 -18 -29 0 -20 -5 -24 -27 -23 -17 1 -21 3 -10 6 9 2 17 12 17 22 0 23 9 31 34 30 17 -1 18 -2 4 -6z m-1181 -25 c-3 -8 -6 -5 -6 6 -1 11 2 17 5 13 3 -3 4 -12 1 -19z m-763 -20 c8 -5 7 -8 -1 -8 -7 0 -13 -7 -13 -15 0 -8 -9 -15 -20 -15 -11 0 -20 7 -20 15 0 8 7 15 15 15 9 0 15 10 16 23 0 15 2 17 6 7 3 -8 11 -18 17 -22z m1966 12 c0 -5 -7 -10 -15 -10 -8 0 -15 5 -15 10 0 6 7 10 15 10 8 0 15 -4 15 -10z m162 3 c-6 -2 -10 -9 -7 -13 3 -5 1 -11 -5 -15 -5 -3 -10 3 -10 14 0 14 6 21 18 20 10 0 12 -3 4 -6z m-1706 -48 c-3 -8 -15 -15 -26 -15 -15 0 -20 -7 -20 -24 0 -19 -6 -25 -27 -28 -22 -2 -28 -8 -28 -28 -1 -20 -6 -24 -23 -23 -19 2 -22 -2 -23 -35 -1 -23 -3 -28 -6 -14 -2 12 -11 22 -19 22 -8 0 -14 7 -14 15 0 8 7 15 16 15 8 0 12 5 9 10 -3 6 1 10 9 10 9 0 16 6 16 14 0 8 11 17 25 20 16 4 25 13 25 26 0 11 7 20 15 20 9 0 12 6 9 15 -4 9 0 15 10 15 9 0 16 -4 16 -10 0 -21 30 -9 31 13 0 12 3 16 6 9 3 -7 2 -19 -1 -27z m91 8 c-4 -3 -7 0 -7 7 0 7 3 10 7 7 3 -4 3 -10 0 -14z m-740 -66 c7 -15 11 -27 8 -27 -5 0 -65 89 -65 97 0 12 45 -43 57 -70z m1650 56 c-4 -3 -7 0 -7 7 0 7 3 10 7 7 3 -4 3 -10 0 -14z m693 -8 c-7 -8 -18 -15 -24 -15 -6 0 -2 7 8 15 25 19 32 19 16 0z m-1933 -50 c-2 -34 -20 -47 -30 -22 -3 6 -6 -25 -6 -70 -1 -91 -6 -113 -28 -113 -11 0 -13 7 -9 25 5 19 2 25 -9 25 -9 0 -18 7 -21 15 -4 8 -12 15 -20 15 -8 0 -14 7 -14 15 0 8 6 15 14 15 8 0 17 10 19 23 2 12 5 1 6 -25 1 -44 3 -48 27 -48 20 0 25 5 24 23 -1 12 -2 43 -1 70 1 40 4 47 21 47 13 0 20 7 20 20 0 11 2 20 5 20 3 0 4 -16 2 -35z m870 -14 c3 -11 15 -22 26 -25 22 -6 22 -6 2 -18 -11 -6 -23 -16 -27 -22 -8 -12 -12 12 -8 53 1 18 -2 22 -14 18 -9 -4 -16 -2 -16 3 0 18 32 10 37 -9z m-840 -8 c-4 -3 -10 -3 -14 0 -3 4 0 7 7 7 7 0 10 -3 7 -7z m1260 -15 c-3 -8 -6 -5 -6 6 -1 11 2 17 5 13 3 -3 4 -12 1 -19z m-577 -38 c0 -15 7 -20 25 -20 20 0 25 -5 25 -25 l0 -24 -218 -3 -218 -3 4 27 c4 23 8 27 27 22 13 -3 26 -1 30 5 3 6 11 9 16 5 6 -3 13 3 16 15 5 20 11 21 149 21 137 0 144 -1 144 -20z m230 -10 c24 0 30 -19 30 -101 0 -61 -2 -69 -19 -69 -12 0 -20 -9 -24 -28 -5 -25 -10 -28 -35 -24 -16 2 -33 -1 -36 -7 -4 -6 -24 -11 -46 -11 -24 0 -40 -5 -44 -15 -3 -8 -12 -15 -21 -15 -10 0 -15 -10 -15 -29 0 -32 -14 -41 -63 -41 -34 -1 -67 -20 -67 -39 0 -6 7 -11 15 -11 11 0 15 -11 15 -42 0 -27 -3 -38 -9 -30 -4 7 -6 24 -3 38 4 23 2 24 -44 25 -27 1 -39 4 -26 6 12 2 22 11 22 18 0 7 -10 16 -22 18 -13 2 -2 5 25 6 43 1 47 3 47 26 0 23 4 25 44 25 36 0 46 4 51 20 3 11 15 20 26 20 14 0 19 7 19 25 0 23 4 25 48 26 93 2 97 3 100 26 2 14 11 23 25 25 14 2 23 11 25 25 3 18 -1 21 -20 17 -23 -5 -23 -5 -1 5 18 8 21 17 20 53 -2 36 -6 43 -24 46 -14 2 -23 10 -22 20 0 11 3 12 6 5 2 -7 13 -13 23 -13z m397 3 c-4 -3 -7 0 -7 7 0 7 3 10 7 7 3 -4 3 -10 0 -14z m-1442 -93 c3 -5 -1 -10 -10 -10 -9 0 -13 5 -10 10 3 6 8 10 10 10 2 0 7 -4 10 -10z m195 -35 c0 -31 -3 -35 -25 -35 -23 0 -25 -3 -25 -50 0 -47 -2 -50 -26 -50 -25 0 -25 -1 -23 -71 2 -57 -1 -74 -14 -84 -25 -18 -22 -65 3 -65 11 0 20 -4 20 -10 0 -5 7 -10 15 -10 8 0 15 -7 15 -15 0 -8 -6 -15 -14 -15 -8 0 -17 -10 -19 -22 -2 -13 -5 -4 -6 20 -1 35 -4 42 -21 42 -20 0 -25 15 -20 68 1 17 -4 22 -24 22 -25 0 -26 -1 -26 -70 0 -43 -4 -70 -11 -70 -5 0 -7 5 -4 10 3 6 -2 11 -12 11 -17 1 -17 2 0 6 21 5 23 33 2 33 -8 0 -15 7 -15 15 0 8 7 15 15 15 8 0 15 5 15 10 0 6 -7 10 -15 10 -8 0 -15 5 -15 10 0 6 7 10 15 10 8 0 15 7 15 15 0 9 6 12 15 9 8 -4 15 -1 15 6 0 7 8 10 20 7 17 -4 19 1 22 62 3 60 5 66 26 69 19 3 22 9 22 48 0 44 0 44 35 44 24 0 35 5 35 15 0 8 -7 15 -15 15 -8 0 -15 7 -15 15 0 8 9 15 20 15 16 0 20 -7 20 -35z m1720 -60 c0 -14 -8 -29 -20 -35 -16 -9 -20 -8 -20 5 0 8 7 15 15 15 8 0 15 9 15 20 0 11 2 20 5 20 3 0 5 -11 5 -25z m-1043 -7 c-3 -8 -6 -5 -6 6 -1 11 2 17 5 13 3 -3 4 -12 1 -19z m-1126 -58 c14 0 11 -28 -3 -33 -8 -3 -6 -6 5 -6 24 -1 22 -37 -3 -44 -19 -5 -20 -1 -19 61 1 37 4 57 6 45 2 -13 9 -23 14 -23z m2176 -5 c-4 -8 -14 -15 -24 -14 -16 0 -16 1 2 9 18 8 18 9 -5 10 l-25 2 25 7 c30 9 34 7 27 -14z m-327 -9 c0 -18 6 -25 23 -28 14 -2 22 -10 23 -23 1 -15 0 -16 -3 -2 -3 10 -14 17 -29 17 -17 0 -24 6 -24 19 0 23 -21 32 -59 25 -28 -6 -29 -8 -38 -88 -5 -53 -5 -84 2 -88 6 -5 3 -8 -6 -8 -9 0 -20 7 -23 16 -8 21 -8 169 1 177 3 4 35 7 70 7 60 0 63 -1 63 -24z m358 -96 c0 -8 -5 -3 -12 12 -9 20 -15 25 -26 18 -24 -15 -42 -11 -38 8 2 11 11 16 26 14 16 -2 22 2 23 15 1 21 28 -44 27 -67z m-978 51 c0 -11 5 -23 10 -26 6 -3 10 -13 10 -22 0 -24 -28 3 -32 30 -4 32 -45 36 -51 5 -4 -20 -4 -20 -6 5 -1 25 2 27 34 27 28 0 35 -4 35 -19z m556 -73 c8 -54 12 -63 34 -69 14 -4 19 -7 11 -8 -7 -1 -11 -7 -7 -16 3 -8 0 -15 -7 -15 -14 0 -37 45 -37 72 0 10 -7 18 -15 18 -17 0 -18 4 -9 49 10 48 20 37 30 -31z m61 45 c-4 -3 -7 0 -7 7 0 7 3 10 7 7 3 -4 3 -10 0 -14z m-1211 -59 c-7 -19 -36 -18 -36 1 0 8 7 15 15 15 8 0 15 5 15 10 0 6 -19 11 -42 12 l-43 1 45 6 c38 5 45 3 48 -12 2 -10 1 -25 -2 -33z m-616 36 c0 -5 -7 -10 -15 -10 -8 0 -15 5 -15 10 0 6 7 10 15 10 8 0 15 -4 15 -10z m480 -13 c0 -25 -17 -47 -37 -47 -21 0 -15 31 7 37 34 9 22 23 -20 23 -36 0 -40 -2 -40 -25 0 -14 5 -25 10 -25 6 0 10 -7 10 -15 0 -9 -9 -15 -24 -15 -24 0 -24 2 -15 33 6 17 12 38 15 45 2 7 21 12 49 12 40 0 45 -2 45 -23z m567 -14 c-3 -10 -5 -4 -5 12 0 17 2 24 5 18 2 -7 2 -21 0 -30z m60 20 c-4 -3 -7 0 -7 7 0 7 3 10 7 7 3 -4 3 -10 0 -14z m69 -63 c8 0 14 9 14 19 0 23 49 39 61 19 5 -7 9 -38 9 -70 0 -51 2 -56 20 -51 19 5 26 -6 20 -32 -1 -5 -3 -28 -3 -50 -2 -33 -6 -41 -24 -43 -16 -2 -22 3 -25 20 -2 15 -11 24 -25 26 -14 2 -23 11 -25 25 -2 18 -11 23 -53 28 l-50 6 43 1 c30 2 42 6 42 17 0 11 -11 15 -37 16 -31 0 -34 2 -18 9 17 7 17 9 3 9 -25 1 -23 37 2 44 15 4 20 14 22 44 l1 38 4 -37 c3 -25 9 -38 19 -38z m-1219 28 c-3 -7 -5 -2 -5 12 0 14 2 19 5 13 2 -7 2 -19 0 -25z m1480 26 c-3 -3 -12 -4 -19 -1 -8 3 -5 6 6 6 11 1 17 -2 13 -5z m-887 -18 c0 -8 -4 -17 -9 -20 -10 -7 -23 19 -14 28 11 11 23 6 23 -8z m913 -3 c-15 -3 -23 -12 -23 -24 0 -23 -23 -34 -47 -23 -15 6 -13 8 10 12 19 2 27 9 27 23 0 14 7 19 28 18 23 -2 24 -2 5 -6z m177 -12 c0 -13 8 -21 23 -23 21 -3 22 -7 23 -103 l0 -100 -3 92 c-4 86 -5 92 -26 95 -14 2 -23 11 -25 25 -2 12 -11 24 -20 26 -12 3 -10 5 6 6 15 1 22 -5 22 -18z m-910 -10 c0 -25 -25 -33 -98 -31 -91 3 -100 1 -105 -17 -4 -14 -5 -13 -6 4 -1 14 -9 23 -23 26 -13 2 30 5 95 6 97 1 117 4 117 16 0 8 5 15 10 15 6 0 10 -9 10 -19z m1149 -33 c-1 -35 -2 -38 -8 -18 -7 23 -4 60 5 60 2 0 4 -19 3 -42z m-52 15 c-4 -3 -7 0 -7 7 0 7 3 10 7 7 3 -4 3 -10 0 -14z m-1876 -118 c-5 -11 -12 -27 -15 -35 -4 -8 -4 0 -1 19 3 18 5 48 6 65 l1 31 9 -30 c6 -18 5 -38 0 -50z m996 69 c-3 -3 -12 -4 -19 -1 -8 3 -5 6 6 6 11 1 17 -2 13 -5z m413 2 c0 -3 -4 -8 -10 -11 -5 -3 -10 -1 -10 4 0 6 5 11 10 11 6 0 10 -2 10 -4z m-741 -49 c-1 -23 -4 -32 -6 -19 -3 14 -12 22 -24 22 -10 0 -19 6 -19 14 0 8 -10 16 -22 19 -13 2 -2 4 25 4 l47 1 -1 -41z m174 36 c-13 -3 -23 -11 -23 -19 0 -8 -4 -14 -10 -14 -5 0 -10 -8 -11 -17 0 -15 -2 -15 -9 2 -7 17 -9 15 -9 -13 -1 -32 0 -33 37 -27 30 4 33 3 15 -4 -13 -6 -23 -19 -23 -31 0 -13 -7 -20 -20 -20 -18 0 -20 7 -20 74 l0 74 48 -1 c26 0 37 -2 25 -4z m594 -25 c-3 -8 -6 -5 -6 6 -1 11 2 17 5 13 3 -3 4 -12 1 -19z m866 -53 c5 -30 4 -35 -3 -17 -7 16 -18 22 -40 22 -20 0 -30 5 -30 15 0 9 9 15 25 15 19 0 25 5 26 23 0 21 1 21 8 2 5 -11 11 -38 14 -60z m-1257 56 c-3 -5 1 -14 9 -21 8 -7 15 -9 15 -4 0 5 17 10 38 10 36 2 36 2 9 -8 -21 -8 -27 -15 -24 -29 4 -14 0 -19 -13 -19 -12 0 -20 8 -22 23 -2 14 -11 23 -25 25 -17 3 -20 -1 -16 -17 3 -11 12 -22 22 -24 9 -3 -13 -4 -49 -4 -36 0 -48 2 -27 4 36 4 54 23 21 23 -25 0 -12 33 16 41 36 10 52 10 46 0z m131 3 c-3 -3 -12 -4 -19 -1 -8 3 -5 6 6 6 11 1 17 -2 13 -5z m-480 -21 c-4 -3 -10 -3 -14 0 -3 4 0 7 7 7 7 0 10 -3 7 -7z m60 0 c-4 -3 -10 -3 -14 0 -3 4 0 7 7 7 7 0 10 -3 7 -7z m-507 -7 c0 -3 -4 -8 -10 -11 -5 -3 -10 -1 -10 4 0 6 5 11 10 11 6 0 10 -2 10 -4z m190 -68 c0 -14 5 -18 15 -14 26 10 77 -6 82 -26 7 -23 80 -26 89 -3 4 8 12 15 19 15 8 0 16 10 18 23 2 12 5 1 6 -25 l1 -48 45 0 c38 0 45 -3 45 -20 0 -18 -7 -20 -72 -20 -70 0 -71 0 -50 19 23 20 29 41 11 41 -6 0 -17 -7 -25 -15 -17 -17 -44 -20 -44 -5 0 6 -9 10 -21 10 -12 0 -23 8 -26 20 -7 25 -43 27 -44 3 -1 -17 -2 -17 -6 0 -3 10 -14 17 -28 17 -18 0 -24 7 -27 29 -2 17 -1 28 4 25 4 -3 8 -14 8 -26z m697 26 c-3 -3 -12 -4 -19 -1 -8 3 -5 6 6 6 11 1 17 -2 13 -5z m240 0 c-3 -3 -12 -4 -19 -1 -8 3 -5 6 6 6 11 1 17 -2 13 -5z m340 0 c-3 -3 -12 -4 -19 -1 -8 3 -5 6 6 6 11 1 17 -2 13 -5z m-1723 -57 c4 -19 3 -26 -4 -22 -5 3 -10 18 -10 32 0 32 5 28 14 -10z m169 6 c-21 -4 -23 -10 -23 -73 0 -64 2 -69 23 -72 19 -3 22 -9 23 -48 1 -25 0 -35 -3 -22 -2 12 -11 22 -19 22 -8 0 -14 9 -14 19 0 14 -5 18 -20 14 -19 -5 -20 0 -20 75 0 85 3 90 55 89 16 0 16 -1 -2 -4z m684 1 c-3 -3 -12 -4 -19 -1 -8 3 -5 6 6 6 11 1 17 -2 13 -5z m440 0 c-3 -3 -12 -4 -19 -1 -8 3 -5 6 6 6 11 1 17 -2 13 -5z m500 -13 c3 -12 11 -17 22 -14 20 5 31 -20 31 -74 0 -26 4 -33 20 -33 15 0 20 -6 19 -27 -1 -23 -2 -24 -6 -6 -3 15 -13 23 -31 25 -23 3 -27 8 -30 40 -2 25 -9 39 -21 43 -13 4 -17 13 -14 29 4 17 0 25 -14 29 -17 5 -17 5 0 6 11 0 21 -7 24 -18z m-1070 -23 c-3 -8 -6 -5 -6 6 -1 11 2 17 5 13 3 -3 4 -12 1 -19z m-740 -30 c-3 -8 -6 -5 -6 6 -1 11 2 17 5 13 3 -3 4 -12 1 -19z m2153 -8 c0 -5 8 -10 18 -11 11 -1 8 -4 -8 -8 -25 -7 -25 -8 -28 -129 -2 -113 -4 -122 -22 -122 -18 0 -20 -9 -22 -117 -3 -114 -4 -118 -25 -121 -15 -2 -23 -10 -23 -23 0 -14 -7 -19 -27 -18 -24 2 -25 2 -5 6 17 3 22 11 22 34 0 16 4 29 10 29 5 0 11 49 12 113 3 108 4 112 26 115 21 3 22 7 22 113 0 70 4 116 12 129 13 21 38 27 38 10z m228 -150 c0 -23 -2 -27 -5 -12 -3 14 -12 22 -24 22 -12 0 -19 7 -18 18 0 10 3 12 6 5 5 -15 33 -18 33 -4 0 21 -13 41 -26 41 -8 0 -14 9 -14 20 0 11 5 20 10 20 6 0 10 10 11 23 2 35 28 -94 27 -133z m-191 98 c-3 -8 -6 -5 -6 6 -1 11 2 17 5 13 3 -3 4 -12 1 -19z m-1980 -5 c-4 -3 -7 0 -7 7 0 7 3 10 7 7 3 -4 3 -10 0 -14z m1321 -19 c13 -4 22 -14 22 -26 0 -17 -6 -19 -67 -16 -52 2 -68 7 -69 18 0 8 1 11 3 5 2 -5 26 -11 53 -12 37 -2 50 1 50 12 0 9 -14 15 -37 18 -32 3 -33 4 -8 5 17 1 40 -1 53 -4z m-158 -74 c0 -10 8 -21 18 -23 18 -5 -48 -10 -87 -7 -22 2 -23 -1 -18 -29 6 -29 5 -31 -17 -25 -21 5 -25 1 -34 -33 l-10 -38 -1 38 c-1 31 3 39 24 47 14 5 25 16 25 25 0 9 11 20 25 25 14 6 25 17 25 28 0 15 5 18 25 14 16 -3 25 -11 25 -22z m424 24 c12 -5 16 -20 16 -63 0 -59 -11 -81 -41 -81 -10 0 -19 -8 -21 -17 -3 -13 -6 -10 -10 10 -4 19 -1 27 8 27 10 0 14 16 14 59 0 54 -2 60 -22 64 -17 3 -15 5 9 6 17 0 38 -2 47 -5z m-201 -51 c-13 -2 -35 -2 -50 0 -16 2 -5 4 22 4 28 0 40 -2 28 -4z m-1246 -40 c-3 -10 -5 -4 -5 12 0 17 2 24 5 18 2 -7 2 -21 0 -30z m-114 -51 c10 -2 21 5 26 20 11 26 14 5 5 -29 -5 -18 -13 -23 -41 -23 -27 0 -34 3 -29 15 4 10 -1 15 -14 15 -26 0 -26 30 0 37 11 3 21 14 21 27 1 11 5 3 8 -19 4 -27 12 -41 24 -43z m1334 38 c-4 -17 1 -19 47 -22 55 -3 58 -8 41 -70 -7 -28 -7 -28 41 -29 27 -1 39 -4 27 -6 -15 -3 -23 -12 -24 -26 -2 -22 -2 -22 -6 1 -3 14 -12 22 -24 22 -13 0 -19 -7 -20 -22 -1 -21 -2 -21 -6 -3 -8 31 -20 40 -37 26 -9 -7 -21 -11 -28 -8 -9 4 -8 6 3 6 10 1 19 13 23 32 5 25 10 30 26 26 15 -4 20 0 20 14 0 15 -10 20 -50 25 -39 5 -50 11 -50 25 0 9 -8 20 -17 22 -11 3 -6 5 11 6 23 1 27 -2 23 -19z m-1257 -22 c0 -16 5 -19 23 -16 23 5 23 5 20 -94 -4 -97 -4 -98 19 -99 17 -1 18 -3 6 -6 -13 -3 -18 -15 -18 -44 0 -32 3 -39 20 -39 17 0 20 -7 20 -50 0 -47 2 -50 25 -50 22 0 25 -4 25 -35 0 -24 -5 -35 -15 -35 -8 0 -15 9 -15 19 0 12 -9 21 -25 25 -14 4 -25 13 -25 21 0 8 -4 15 -10 15 -5 0 -10 7 -10 15 0 8 9 15 20 15 11 0 20 7 20 15 0 10 -11 15 -35 15 l-35 0 0 50 c0 28 5 50 10 50 6 0 10 37 10 90 l0 90 -30 0 c-16 0 -30 5 -30 10 0 6 5 10 11 10 7 0 10 12 7 29 -2 17 -1 28 4 25 4 -3 8 -14 8 -26z m617 -37 c3 -13 11 -17 24 -14 15 4 20 -1 25 -26 5 -24 12 -31 30 -31 17 0 24 -6 24 -20 0 -11 6 -20 14 -20 19 0 31 -39 17 -53 -5 -5 -26 -10 -46 -9 -29 1 -35 -2 -35 -19 0 -23 -27 -36 -43 -20 -8 8 -5 11 11 11 15 0 22 6 22 19 0 21 42 41 48 23 4 -14 42 -2 42 13 0 8 -9 17 -20 20 -11 3 -20 15 -20 26 0 12 -7 19 -19 19 -11 0 -23 5 -26 10 -3 6 -19 10 -35 10 -27 0 -28 2 -23 35 l6 35 -41 0 c-37 0 -40 -2 -46 -33 -4 -23 -14 -36 -37 -46 -16 -7 -33 -10 -36 -7 -4 3 1 6 10 6 11 0 17 8 17 25 0 15 7 28 18 32 9 4 21 12 25 20 5 7 26 13 48 13 32 0 42 -4 46 -19z m973 -26 c0 -28 -4 -35 -20 -35 -19 0 -20 -7 -21 -102 -1 -97 -2 -100 -11 -50 -6 34 -14 52 -24 52 -10 0 -14 13 -14 45 0 32 4 45 14 45 15 0 29 27 21 40 -6 10 24 22 36 14 5 -3 9 2 9 10 0 9 2 16 5 16 3 0 5 -16 5 -35z m-113 -17 c-3 -7 -5 -2 -5 12 0 14 2 19 5 13 2 -7 2 -19 0 -25z m563 2 c0 -5 7 -10 15 -10 17 0 20 -67 4 -110 -8 -22 -8 -21 -4 8 4 30 3 32 -15 22 -16 -9 -20 -8 -20 5 0 8 9 15 20 15 15 0 20 7 20 25 0 26 -24 35 -33 13 -3 -7 -6 -1 -6 15 -1 15 4 27 9 27 6 0 10 -4 10 -10z m-1763 -36 c-3 -3 -12 -4 -19 -1 -8 3 -5 6 6 6 11 1 17 -2 13 -5z m136 -1 c-13 -2 -23 -11 -23 -18 0 -7 10 -16 23 -18 12 -2 -11 -5 -50 -6 -72 -1 -73 0 -73 24 0 24 1 25 73 24 39 -1 62 -4 50 -6z m354 -10 c-4 -3 -7 0 -7 7 0 7 3 10 7 7 3 -4 3 -10 0 -14z m-92 -23 c3 -5 -1 -10 -9 -10 -9 0 -16 5 -16 10 0 6 4 10 9 10 6 0 13 -4 16 -10z m-149 -105 c-6 -31 -10 -33 -51 -37 -38 -3 -45 0 -45 14 0 18 19 23 68 19 19 -2 22 3 23 41 1 26 4 33 6 19 3 -13 2 -38 -1 -56z m88 3 c3 -17 4 -33 1 -36 -3 -3 -5 2 -5 11 0 10 -6 17 -14 17 -8 0 -23 3 -33 6 -14 5 -15 4 -4 -4 16 -12 8 -42 -12 -42 -10 0 -13 9 -10 28 8 47 12 52 41 52 25 0 30 -5 36 -32z m-784 12 c0 -5 6 -10 14 -10 11 0 12 -23 8 -119 -5 -119 -5 -119 18 -123 26 -3 44 -46 29 -69 -6 -10 -9 -8 -9 9 0 17 -6 22 -26 22 -19 0 -25 4 -20 15 3 9 0 15 -9 15 -12 0 -15 18 -15 95 0 57 -4 95 -10 95 -5 0 -10 -4 -10 -10 0 -5 -7 -10 -15 -10 -11 0 -15 11 -15 40 0 29 4 40 15 40 8 0 15 5 15 10 0 6 7 10 15 10 8 0 15 -4 15 -10z m-121 -80 c1 -13 0 -13 -9 0 -5 8 -9 26 -9 40 l1 25 8 -25 c4 -14 8 -32 9 -40z m2351 -19 c0 -34 -3 -38 -20 -34 -23 6 -27 33 -5 33 8 0 15 9 15 20 0 11 2 20 5 20 3 0 5 -18 5 -39z m-371 2 c0 -5 -5 -17 -10 -28 -9 -19 -9 -19 -5 2 2 12 -1 24 -8 27 -6 2 -3 5 7 5 9 1 17 -2 16 -6z m-143 -180 c-3 -7 -15 -13 -26 -13 -16 0 -20 -7 -20 -30 0 -33 7 -36 45 -18 17 8 22 14 13 19 -20 13 8 37 37 31 23 -4 25 -1 25 32 0 25 -4 36 -15 36 -8 0 -15 4 -15 10 0 14 70 24 83 11 8 -8 4 -11 -16 -11 -25 0 -27 -3 -27 -45 0 -41 -2 -45 -25 -45 -20 0 -25 -5 -25 -24 0 -18 -6 -25 -22 -28 -19 -2 -24 -10 -26 -47 -2 -32 -8 -44 -22 -48 -20 -5 -34 -29 -25 -43 6 -10 -24 -22 -36 -14 -5 3 -9 -4 -9 -15 0 -16 -6 -21 -25 -21 -23 0 -25 -4 -26 -47 -1 -27 -4 -38 -6 -25 -3 14 -12 22 -24 22 -13 0 -19 -7 -20 -22 -1 -16 -4 -11 -11 15 -11 39 -28 50 -28 17 0 -15 -7 -20 -25 -20 -18 0 -25 -5 -25 -20 0 -11 -7 -20 -15 -20 -8 0 -15 9 -15 20 0 14 -7 20 -22 21 -13 1 -1 5 26 10 28 4 53 6 58 3 4 -3 8 6 8 20 0 19 4 24 15 20 8 -4 23 0 32 7 14 13 16 11 11 -13 -4 -23 -2 -28 13 -28 11 0 19 7 19 15 0 8 -4 15 -9 15 -5 0 -11 11 -13 25 -4 19 -1 25 13 25 14 0 19 7 19 29 0 25 3 28 26 23 22 -4 26 -1 24 19 -6 64 -1 79 25 79 24 0 25 2 25 66 0 57 3 67 20 71 14 4 21 18 27 52 8 45 8 45 11 -28 2 -41 1 -80 -2 -88z m-1625 87 c5 0 9 5 9 10 0 6 7 10 15 10 10 0 15 -15 17 -57 2 -32 8 -58 13 -58 24 -1 35 -19 35 -61 0 -40 2 -44 25 -44 20 0 25 -5 25 -26 0 -23 3 -25 30 -19 27 6 30 4 30 -18 0 -14 7 -27 15 -31 8 -3 15 -13 15 -23 0 -11 -3 -14 -8 -7 -4 7 -16 13 -27 15 -12 3 -21 14 -23 27 -2 14 -10 22 -23 22 -13 0 -19 7 -19 24 0 18 -6 25 -22 28 -20 3 -23 10 -26 51 -3 42 -5 47 -28 47 -22 0 -24 4 -24 45 0 41 -2 45 -25 45 -23 0 -25 3 -23 43 1 36 2 38 5 10 2 -18 8 -33 14 -33z m1786 33 c-4 -3 -10 -3 -14 0 -3 4 0 7 7 7 7 0 10 -3 7 -7z m360 -10 c-4 -3 -7 0 -7 7 0 7 3 10 7 7 3 -4 3 -10 0 -14z m-4 -184 c-4 -57 -9 -94 -11 -81 -2 12 -10 22 -18 22 -8 0 -14 7 -14 15 0 8 7 15 15 15 8 0 15 7 15 15 0 8 -7 15 -15 15 -8 0 -15 7 -15 15 0 8 9 15 20 15 11 0 20 5 20 10 0 6 -7 10 -15 10 -8 0 -15 5 -15 10 0 6 7 10 15 10 9 0 15 9 15 22 0 12 2 19 5 16 3 -3 2 -52 -2 -109z m-2076 5 c-3 -3 -12 -4 -19 -1 -8 3 -5 6 6 6 11 1 17 -2 13 -5z m1630 0 c-3 -3 -12 -4 -19 -1 -8 3 -5 6 6 6 11 1 17 -2 13 -5z m-1900 -21 c-4 -3 -7 0 -7 7 0 7 3 10 7 7 3 -4 3 -10 0 -14z m43 -42 c0 -9 -5 -22 -11 -28 -7 -7 -6 -15 5 -26 9 -9 16 -20 16 -26 0 -25 35 -81 48 -76 9 3 12 -1 10 -14 -2 -10 3 -25 11 -34 7 -10 10 -17 5 -17 -20 0 -109 162 -120 217 -6 29 -4 31 15 26 11 -3 21 -13 21 -22z m213 -42 c22 -2 22 -2 0 -6 -13 -2 -23 -9 -23 -14 0 -14 -20 -11 -36 5 -20 20 -17 36 6 36 14 0 21 7 22 23 1 13 3 9 5 -10 3 -25 9 -33 26 -34z m243 1 c19 0 24 -5 24 -25 0 -18 5 -25 20 -25 11 0 23 -7 26 -15 4 -8 15 -15 25 -15 12 0 21 -9 25 -25 6 -26 29 -34 37 -12 3 7 6 5 6 -5 1 -12 10 -18 29 -19 23 -2 24 -2 5 -6 -15 -3 -23 -12 -23 -24 0 -10 -7 -19 -15 -19 -8 0 -15 9 -15 20 0 11 -7 20 -15 20 -8 0 -14 3 -14 8 1 4 1 15 0 24 -1 17 -2 17 -20 1 -11 -9 -18 -21 -17 -27 2 -6 1 -8 -1 -3 -3 4 -27 7 -54 7 -43 0 -49 3 -49 20 0 12 -10 24 -22 30 l-23 9 23 0 c15 1 26 -8 34 -24 12 -28 42 -33 64 -11 21 22 18 56 -6 56 -11 0 -20 -4 -20 -10 0 -5 -6 -10 -14 -10 -16 0 -26 21 -26 53 0 17 -2 19 -9 8 -6 -9 -15 -11 -27 -6 -18 8 -18 8 -1 12 10 3 18 15 18 31 2 24 2 24 6 5 3 -16 11 -23 29 -23z m1661 18 c-3 -8 -6 -5 -6 6 -1 11 2 17 5 13 3 -3 4 -12 1 -19z m60 -20 c-3 -8 -6 -5 -6 6 -1 11 2 17 5 13 3 -3 4 -12 1 -19z m-17 -13 c0 -8 -9 -15 -19 -15 -12 0 -21 -8 -24 -22 -3 -14 -5 -9 -6 15 -1 33 2 37 24 37 16 0 25 -6 25 -15z m-7 -72 c-7 -2 -19 -2 -25 0 -7 3 -2 5 12 5 14 0 19 -2 13 -5z m137 -13 c0 -11 -7 -20 -15 -20 -8 0 -15 9 -15 20 0 11 7 20 15 20 8 0 15 -9 15 -20z m-2015 -40 c3 -5 6 -30 7 -55 0 -39 4 -45 22 -46 17 -1 17 -2 4 -6 -25 -6 -23 -43 1 -43 13 0 21 -8 23 -22 2 -15 11 -24 26 -26 18 -3 22 -10 22 -38 0 -24 -5 -34 -15 -34 -8 0 -15 9 -15 20 0 13 -7 20 -19 20 -23 0 -40 22 -23 28 7 2 12 8 12 14 0 6 -13 8 -35 4 l-35 -7 0 41 c0 22 5 40 10 40 6 0 10 23 10 50 0 37 -4 50 -14 50 -8 0 -18 5 -21 10 -3 6 3 10 14 10 11 0 22 -4 26 -10z m485 -20 c0 -12 10 -24 23 -30 13 -5 16 -9 7 -10 -8 0 -25 -3 -37 -6 -20 -6 -23 -3 -23 24 0 24 -5 32 -22 35 -14 3 -9 5 15 6 31 1 37 -2 37 -19z m37 14 c-3 -3 -12 -4 -19 -1 -8 3 -5 6 6 6 11 1 17 -2 13 -5z m580 -1 c-25 -4 -28 -8 -22 -32 6 -27 4 -28 -22 -23 -19 4 -22 7 -10 10 9 2 17 12 17 22 0 10 -8 20 -17 22 -10 3 5 4 32 5 28 0 37 -2 22 -4z m-890 -25 c-3 -8 -6 -5 -6 6 -1 11 2 17 5 13 3 -3 4 -12 1 -19z m-247 -8 c0 -5 -8 -10 -17 -10 -15 0 -16 2 -3 10 19 12 20 12 20 0z m1305 0 c3 -5 1 -10 -4 -10 -6 0 -11 -12 -11 -27 0 -33 -5 -28 -13 15 -5 24 -3 32 8 32 7 0 17 -4 20 -10z m-957 -20 c4 -12 2 -13 -9 -4 -8 7 -23 14 -34 17 -13 4 -9 5 9 4 16 -1 32 -9 34 -17z m-432 -70 c2 0 1 7 -2 15 -4 9 0 15 10 15 9 0 16 -7 16 -15 0 -8 -5 -15 -10 -15 -7 0 -7 -6 0 -20 6 -11 19 -20 29 -20 10 0 21 -9 24 -21 3 -13 1 -19 -6 -16 -7 3 -11 10 -9 16 1 7 -2 10 -7 6 -10 -5 -91 94 -91 111 0 5 10 -6 21 -23 12 -18 23 -33 25 -33z m1310 46 c19 5 25 4 20 -5 -4 -6 -16 -11 -27 -11 -14 0 -19 -7 -20 -27 -2 -24 -2 -25 -6 -5 -2 12 -11 22 -19 22 -8 0 -14 6 -14 13 0 21 12 28 26 16 6 -5 24 -7 40 -3z m-787 -33 c-1 -23 -2 -24 -6 -6 -2 13 -13 24 -26 26 -18 4 -17 5 6 6 23 1 27 -3 26 -26z m1480 -29 c-10 -13 -10 -17 0 -24 16 -9 6 -30 -15 -30 -8 0 -15 10 -15 23 -1 12 -5 4 -9 -18 l-7 -40 -2 43 c-1 36 2 42 20 42 13 0 23 8 27 22 3 12 7 17 10 10 2 -7 -2 -20 -9 -28z m81 16 c0 -14 27 -12 33 3 3 6 5 -4 5 -23 0 -19 -2 -27 -5 -17 -3 10 -14 17 -29 17 -15 0 -24 6 -24 15 0 8 5 15 10 15 6 0 10 -4 10 -10z m-837 -17 c-7 -2 -21 -2 -30 0 -10 3 -4 5 12 5 17 0 24 -2 18 -5z m-235 -50 c-10 -2 -18 -13 -18 -24 0 -18 -8 -19 -117 -17 l-118 1 105 7 c130 9 120 7 120 25 0 9 9 15 23 14 16 -1 18 -2 5 -6z m-923 -43 c3 -5 4 -10 1 -10 -3 0 -8 5 -11 10 -3 6 -4 10 -1 10 3 0 8 -4 11 -10z m1805 -25 c0 -7 -7 -15 -15 -19 -11 -4 -15 1 -15 19 0 18 4 23 15 19 8 -4 15 -12 15 -19z m53 18 c-7 -2 -21 -2 -30 0 -10 3 -4 5 12 5 17 0 24 -2 18 -5z m24 -15 c-3 -8 -6 -5 -6 6 -1 11 2 17 5 13 3 -3 4 -12 1 -19z m-129 -35 c-12 -3 -18 -14 -18 -34 0 -16 -5 -29 -11 -29 -7 0 -9 9 -5 23 3 12 6 28 6 35 0 6 10 11 23 11 16 -1 18 -2 5 -6z m-71 -25 c-3 -8 -6 -5 -6 6 -1 11 2 17 5 13 3 -3 4 -12 1 -19z m-1568 -18 c7 0 9 -4 6 -10 -3 -5 6 -12 20 -16 14 -3 25 -10 25 -14 0 -5 20 -20 44 -34 25 -15 48 -31 51 -36 6 -10 -108 59 -163 98 -17 13 -32 28 -32 34 0 6 8 4 18 -5 10 -10 24 -17 31 -17z m194 -42 c12 -2 22 -11 23 -21 1 -12 1 -13 -3 -2 -6 20 -33 19 -33 -1 0 -10 -7 -14 -22 -12 -27 4 -39 48 -14 48 9 0 17 8 17 18 1 12 3 10 6 -5 3 -13 13 -23 26 -25z m1340 11 c11 -8 -22 -49 -39 -49 -7 0 -15 6 -17 13 -3 6 -6 2 -6 -10 -1 -22 -31 -34 -31 -12 0 5 5 7 10 4 6 -4 10 5 10 19 0 21 5 26 25 26 19 0 25 5 26 23 0 15 2 17 6 7 3 -8 10 -18 16 -21z m-153 -104 c0 -24 -5 -35 -15 -35 -8 0 -15 7 -15 15 0 8 5 15 10 15 6 0 10 9 10 20 0 11 2 20 5 20 3 0 5 -16 5 -35z m-1123 8 c-4 -3 -7 0 -7 7 0 7 3 10 7 7 3 -4 3 -10 0 -14z m50 0 c-4 -3 -7 0 -7 7 0 7 3 10 7 7 3 -4 3 -10 0 -14z m-4 -20 c-7 -2 -13 -16 -13 -29 0 -24 31 -44 108 -69 22 -6 23 -5 17 17 -10 32 -10 31 -55 30 -36 -2 -40 1 -40 22 0 28 15 36 53 29 18 -4 27 -12 27 -23 0 -19 32 -36 48 -26 5 3 7 -6 4 -20 -4 -25 -3 -26 44 -24 27 1 73 1 102 1 49 -1 52 -3 52 -26 l0 -25 235 0 235 0 0 25 c0 23 3 25 50 25 47 0 50 2 50 25 0 14 5 25 10 25 16 0 26 -33 12 -38 -7 -2 -12 -12 -12 -23 0 -10 -7 -19 -15 -19 -8 0 -15 5 -15 10 0 6 -16 10 -36 10 -29 0 -35 -3 -30 -16 16 -42 -38 -79 -69 -48 -18 18 -325 21 -325 3 0 -13 -98 -6 -193 12 -40 8 -54 15 -45 21 8 5 4 6 -13 3 -17 -4 -32 -1 -42 10 -9 9 -21 14 -27 10 -19 -12 -209 79 -195 94 3 2 11 -2 20 -9 13 -10 15 -9 15 9 0 16 6 21 28 20 15 0 21 -3 15 -6z m1027 -31 c0 -26 -2 -28 -35 -24 -19 2 -33 8 -30 12 2 4 16 5 30 2 20 -3 25 0 25 17 0 11 2 21 5 21 3 0 5 -13 5 -28z m266 -87 c-3 -8 0 -15 7 -15 17 -1 -12 -16 -46 -24 -19 -4 -26 -3 -22 4 3 5 14 10 25 10 13 0 17 5 13 20 -4 14 0 20 12 20 11 0 15 -5 11 -15z m41 0 c0 -18 -19 -15 -25 3 -2 7 3 12 11 12 7 0 14 -7 14 -15z m38 5 c-3 -5 -12 -10 -18 -10 -7 0 -6 4 3 10 19 12 23 12 15 0z m-898 -66 c-3 -3 -12 -4 -19 -1 -8 3 -5 6 6 6 11 1 17 -2 13 -5z m440 -10 c-3 -3 -12 -4 -19 -1 -8 3 -5 6 6 6 11 1 17 -2 13 -5z m-164 -11 c-7 -2 -19 -2 -25 0 -7 3 -2 5 12 5 14 0 19 -2 13 -5z"/>
<path d="M6248 4853 c7 -3 16 -2 19 1 4 3 -2 6 -13 5 -11 0 -14 -3 -6 -6z"/>
<path d="M8361 4194 c0 -11 3 -14 6 -6 3 7 2 16 -1 19 -3 4 -6 -2 -5 -13z"/>
<path d="M8518 3963 c7 -3 16 -2 19 1 4 3 -2 6 -13 5 -11 0 -14 -3 -6 -6z"/>
<path d="M6398 3083 c7 -3 16 -2 19 1 4 3 -2 6 -13 5 -11 0 -14 -3 -6 -6z"/>
<path d="M4950 3120 c0 -29 4 -40 15 -40 11 0 15 11 15 40 0 29 -4 40 -15 40 -11 0 -15 -11 -15 -40z"/>
<path d="M5550 2796 c0 -8 -11 -17 -25 -20 -14 -4 -25 -13 -25 -21 0 -13 21 -15 123 -14 67 0 116 3 110 6 -7 2 -13 18 -13 34 l0 29 -85 0 c-66 0 -85 -3 -85 -14z"/>
<path d="M5753 2773 c4 -3 10 -3 14 0 3 4 0 7 -7 7 -7 0 -10 -3 -7 -7z"/>
<path d="M5975 2262 c4 -21 3 -32 -4 -32 -22 0 -10 -18 15 -23 24 -4 26 -3 20 25 -3 16 -13 37 -22 46 -15 15 -16 13 -9 -16z"/>
<path d="M6033 2253 c4 -3 10 -3 14 0 3 4 0 7 -7 7 -7 0 -10 -3 -7 -7z"/>
<path d="M5385 2080 c-4 -6 8 -10 29 -10 20 0 36 5 36 10 0 6 -13 10 -29 10 -17 0 -33 -4 -36 -10z"/>
<path d="M5290 1695 c0 -10 10 -15 30 -15 20 0 30 5 30 15 0 10 -10 15 -30 15 -20 0 -30 -5 -30 -15z"/>
<path d="M4790 1550 c0 -15 7 -20 25 -20 18 0 25 5 25 20 0 15 -7 20 -25 20 -18 0 -25 -5 -25 -20z"/>
<path d="M6440 1190 c0 -39 1 -40 35 -40 32 0 35 2 35 30 0 25 -4 30 -25 30 -14 0 -25 5 -25 10 0 6 -4 10 -10 10 -5 0 -10 -18 -10 -40z"/>
<path d="M6390 1097 c0 -26 4 -37 15 -37 19 0 19 29 0 54 -14 19 -15 18 -15 -17z"/>
<path d="M6420 1119 c0 -5 9 -9 20 -9 11 0 20 2 20 4 0 2 -9 6 -20 9 -11 3 -20 1 -20 -4z"/>
<path d="M4725 1170 c3 -5 8 -10 11 -10 3 0 2 5 -1 10 -3 6 -8 10 -11 10 -3 0 -2 -4 1 -10z"/>
<path d="M5656 395 c-21 -16 -18 -17 37 -29 24 -6 27 -3 27 19 0 19 -5 25 -22 25 -13 0 -32 -7 -42 -15z"/>
</g>
<g id="layer103" fill="#505050" stroke="none">
<path d="M3070 4890 c0 -43 3 -50 19 -50 17 0 20 -8 23 -47 3 -41 6 -48 26 -51 20 -3 22 -8 22 -73 0 -62 2 -69 19 -69 12 0 21 8 24 23 2 12 5 -8 6 -45 1 -65 2 -68 26 -68 20 0 25 -5 25 -25 0 -20 5 -25 25 -25 23 0 25 -3 25 -50 0 -43 3 -50 19 -50 17 0 20 -8 23 -47 3 -41 6 -48 26 -51 20 -3 22 -8 22 -74 0 -70 0 -70 25 -66 22 5 25 2 25 -23 0 -23 4 -29 23 -29 18 0 22 -6 23 -33 1 -58 9 -67 59 -67 38 0 45 -3 45 -20 0 -16 9 -21 51 -26 43 -6 50 -10 46 -25 -5 -17 2 -19 67 -19 69 0 73 -1 72 -22 -1 -20 5 -23 47 -26 37 -2 47 -7 47 -20 0 -23 37 -26 43 -4 4 15 5 15 6 1 1 -10 13 -19 31 -22 21 -5 30 -12 30 -27 0 -15 9 -21 40 -26 31 -5 40 -11 40 -26 0 -16 5 -19 25 -16 14 3 25 1 25 -4 0 -6 11 -7 25 -4 22 6 25 3 25 -19 0 -23 3 -25 50 -25 47 0 50 -2 50 -25 0 -18 5 -25 19 -25 13 0 21 -8 23 -22 2 -15 11 -24 26 -26 14 -2 22 -10 22 -23 0 -12 7 -19 19 -19 13 0 21 -8 23 -22 2 -17 11 -24 31 -26 21 -3 27 -9 27 -28 0 -19 5 -24 26 -24 21 0 25 -4 23 -27 -5 -68 -2 -73 45 -73 39 0 45 -3 48 -22 2 -15 11 -24 26 -26 14 -2 22 -10 22 -23 0 -14 7 -19 25 -19 20 0 25 -5 25 -25 0 -18 5 -25 19 -25 13 0 21 -8 23 -22 2 -15 11 -24 26 -26 19 -3 22 -9 22 -48 0 -37 3 -44 19 -44 11 0 21 8 24 18 2 9 4 0 4 -22 1 -39 17 -60 41 -51 7 3 11 1 7 -4 -10 -18 7 -41 31 -41 24 0 24 -1 24 -95 l0 -95 26 0 c20 0 25 5 24 23 -1 12 -2 43 -1 70 1 39 4 47 20 47 14 0 20 10 25 41 4 22 4 44 1 50 -4 5 5 9 19 9 24 0 26 4 27 48 1 26 1 56 1 67 -1 17 0 17 4 3 3 -10 14 -18 25 -18 16 0 19 7 19 45 0 41 2 45 25 45 20 0 25 5 25 25 0 20 5 25 25 25 18 0 25 5 25 19 0 13 8 21 23 23 16 2 22 9 21 26 0 17 5 22 23 22 28 0 33 36 6 43 -13 3 -11 5 6 6 20 1 22 5 17 26 -6 22 -3 25 19 25 20 0 25 5 25 25 0 20 5 25 26 25 20 0 25 5 24 23 -6 67 -6 67 70 67 68 0 70 1 70 25 0 23 3 25 50 25 47 0 50 -2 50 -25 0 -20 5 -25 25 -25 18 0 25 -5 25 -20 0 -13 7 -20 20 -20 15 0 20 -7 20 -25 0 -20 5 -25 25 -25 23 0 25 -3 25 -50 l0 -50 50 0 c47 0 50 -2 50 -25 0 -20 5 -25 25 -25 20 0 25 -5 25 -26 0 -23 3 -26 25 -22 21 4 25 1 25 -18 0 -19 5 -24 24 -24 19 0 22 -4 18 -25 -3 -20 0 -25 16 -25 13 0 22 8 25 23 2 12 5 1 6 -25 1 -40 4 -48 20 -48 12 0 21 -9 25 -26 5 -20 12 -25 26 -21 16 4 20 0 20 -19 0 -19 5 -24 25 -24 23 0 25 -3 25 -50 0 -46 2 -50 24 -50 23 0 25 -5 28 -47 3 -41 6 -48 26 -51 13 -2 22 -10 22 -21 0 -13 10 -20 36 -24 44 -7 64 0 64 24 0 17 8 19 70 19 68 0 70 1 70 25 0 20 5 25 25 25 20 0 25 5 25 25 0 20 5 25 25 25 20 0 25 5 25 26 0 14 4 22 10 19 5 -3 25 -3 44 1 25 4 36 12 38 28 2 13 11 22 26 24 14 2 22 10 22 22 0 12 8 20 23 22 14 2 23 11 25 26 2 14 10 22 23 22 13 0 19 7 19 24 0 19 6 25 28 28 21 2 27 8 26 26 0 17 5 22 23 22 16 0 23 6 23 20 0 17 7 20 50 20 46 0 50 2 50 24 0 18 6 25 23 28 14 2 23 11 25 25 2 14 11 23 25 25 14 2 23 11 25 26 3 20 8 22 73 22 67 0 69 1 69 25 0 24 2 25 64 25 59 0 65 2 68 23 3 21 8 22 81 21 42 0 77 3 77 7 0 4 9 5 20 2 15 -4 20 0 20 16 0 21 18 26 78 21 18 -1 22 4 22 28 0 26 3 29 26 24 25 -4 26 -3 22 22 -5 23 -2 26 23 26 24 0 29 4 29 25 0 18 5 25 19 25 13 0 21 8 23 23 2 14 11 23 25 25 14 2 23 11 25 25 2 14 11 23 26 25 14 2 22 10 22 23 0 14 7 19 25 19 21 0 25 5 25 29 0 25 3 28 26 23 22 -4 26 -1 24 19 -5 53 0 68 23 71 18 2 23 10 25 43 4 50 13 59 54 57 28 -1 34 2 34 21 1 60 7 119 11 100 3 -15 12 -23 24 -23 16 0 19 8 20 43 1 23 3 34 6 25 7 -28 45 -23 43 5 -5 52 0 67 20 67 20 0 21 3 24 70 1 18 7 26 24 28 16 3 22 10 22 28 0 19 5 24 24 24 20 0 24 6 30 41 4 22 4 44 2 48 -3 5 6 6 19 3 24 -4 25 -2 25 47 0 48 1 51 26 51 20 0 25 5 24 23 -5 52 0 67 20 67 25 0 27 37 3 43 -14 4 -13 5 4 6 20 1 22 5 16 51 -6 49 -5 50 21 50 21 0 26 5 26 25 l0 25 -1637 -2 c-901 -1 -1614 -3 -1585 -5 44 -3 52 -7 52 -24 0 -14 7 -19 25 -19 18 0 25 5 25 20 0 15 7 20 25 20 18 0 25 -5 25 -20 0 -19 7 -20 95 -20 87 0 95 -2 95 -19 0 -11 -9 -21 -23 -25 -12 -3 -141 -5 -287 -4 l-265 0 3 44 4 43 46 4 c26 2 -472 4 -1105 5 l-1153 2 0 -50z m2165 -4 c-6 -29 -12 -36 -31 -36 -17 0 -24 6 -24 20 0 15 7 20 25 20 19 0 25 5 25 22 0 12 3 19 6 16 3 -3 2 -22 -1 -42z m905 -21 c0 -23 4 -25 45 -25 41 0 45 2 45 25 0 34 47 37 52 3 3 -20 10 -23 50 -26 39 -3 47 -6 50 -25 2 -17 12 -23 43 -28 22 -3 32 -7 23 -8 -11 0 -18 -9 -18 -21 0 -17 7 -20 45 -20 38 0 45 -3 45 -20 0 -11 -7 -20 -15 -20 -8 0 -15 -7 -15 -15 0 -8 7 -15 15 -15 8 0 14 6 13 13 -2 7 9 13 25 15 23 3 27 0 27 -22 0 -24 -3 -26 -44 -26 -39 0 -45 3 -48 23 -3 19 -10 22 -50 25 -39 3 -48 7 -48 22 0 22 -43 27 -167 22 -60 -3 -73 -7 -74 -20 -1 -15 -2 -15 -6 1 -2 9 -12 17 -21 18 -9 0 -72 0 -139 -1 -118 -1 -123 0 -123 19 0 13 -7 22 -17 23 -10 1 11 4 47 7 l65 6 3 48 3 47 95 0 c94 0 94 0 94 -25z m-338 -140 c-3 -16 -11 -25 -23 -25 -28 0 -25 37 4 43 12 2 23 5 23 6 1 0 -1 -10 -4 -24z m-55 -21 c-3 -3 -12 -4 -19 -1 -8 3 -5 6 6 6 11 1 17 -2 13 -5z m80 -1 c-4 -3 -10 -3 -14 0 -3 4 0 7 7 7 7 0 10 -3 7 -7z m540 0 c-4 -3 -10 -3 -14 0 -3 4 0 7 7 7 7 0 10 -3 7 -7z m2061 -350 c-10 -2 -18 -12 -18 -20 0 -9 -3 -14 -6 -10 -12 11 5 37 23 36 17 -1 17 -2 1 -6z m-3826 -253 c-3 -21 -10 -30 -23 -30 -29 0 -26 47 4 53 12 2 22 5 23 6 0 0 -1 -12 -4 -29z m-44 -53 c2 -12 -4 -20 -17 -24 -11 -3 -22 -12 -24 -22 -3 -9 -5 3 -6 27 -1 39 1 43 21 40 13 -2 24 -11 26 -21z m39 -4 c-4 -3 -7 0 -7 7 0 7 3 10 7 7 3 -4 3 -10 0 -14z m-960 -100 c-4 -3 -7 0 -7 7 0 7 3 10 7 7 3 -4 3 -10 0 -14z m240 -95 c-3 -8 -6 -5 -6 6 -1 11 2 17 5 13 3 -3 4 -12 1 -19z m2839 -73 c4 -8 3 -31 0 -50 -5 -26 -12 -35 -26 -35 -17 0 -20 7 -20 43 0 24 3 47 7 50 11 12 33 7 39 -8z m-39 -112 c-4 -3 -7 0 -7 7 0 7 3 10 7 7 3 -4 3 -10 0 -14z m700 -220 c-4 -3 -10 -3 -14 0 -3 4 0 7 7 7 7 0 10 -3 7 -7z m-1490 -49 c-3 -3 -12 -4 -19 -1 -8 3 -5 6 6 6 11 1 17 -2 13 -5z m-1290 -69 c1 -15 0 -15 -3 -3 -3 9 -13 19 -22 22 -12 3 -12 4 3 3 12 -1 21 -10 22 -22z m483 5 c0 -13 -7 -20 -20 -20 -13 0 -20 7 -20 20 0 13 7 20 20 20 13 0 20 -7 20 -20z m2107 14 c-3 -3 -12 -4 -19 -1 -8 3 -5 6 6 6 11 1 17 -2 13 -5z m-2157 -64 c0 -13 -7 -20 -20 -20 -13 0 -20 7 -20 20 0 13 7 20 20 20 13 0 20 -7 20 -20z m1400 -5 c0 -20 5 -25 26 -25 25 0 25 -1 22 -70 -2 -67 -14 -90 -39 -74 -5 3 -9 -4 -9 -15 0 -16 -6 -21 -25 -21 l-25 0 0 115 0 115 25 0 c20 0 25 -5 25 -25z m-1733 -7 c-3 -8 -6 -5 -6 6 -1 11 2 17 5 13 3 -3 4 -12 1 -19z m274 -61 c16 -4 19 -14 19 -71 0 -64 -1 -66 -25 -66 -26 0 -26 0 -23 88 1 48 3 80 5 71 2 -10 13 -19 24 -22z m46 7 c-3 -3 -12 -4 -19 -1 -8 3 -5 6 6 6 11 1 17 -2 13 -5z m-70 -176 c-3 -8 -6 -5 -6 6 -1 11 2 17 5 13 3 -3 4 -12 1 -19z m1480 0 c-3 -8 -6 -5 -6 6 -1 11 2 17 5 13 3 -3 4 -12 1 -19z m-1462 -67 c-6 -5 -25 10 -25 20 0 5 6 4 14 -3 8 -7 12 -15 11 -17z m1362 -38 c-4 -3 -7 0 -7 7 0 7 3 10 7 7 3 -4 3 -10 0 -14z m50 -95 c-3 -8 -6 -5 -6 6 -1 11 2 17 5 13 3 -3 4 -12 1 -19z m50 -45 c-4 -3 -7 0 -7 7 0 7 3 10 7 7 3 -4 3 -10 0 -14z"/>
</g>
<g id="layer104" fill="#7b7b7b" stroke="none">
<path d="M0 2470 l0 -2470 6000 0 6000 0 0 2470 0 2470 -1449 0 -1449 0 -50 -92 c-27 -51 -69 -124 -94 -163 -25 -38 -54 -90 -65 -115 -18 -41 -47 -92 -198 -355 -112 -194 -146 -248 -217 -337 -41 -51 -84 -107 -96 -124 -25 -36 -77 -75 -297 -220 -185 -122 -225 -144 -343 -186 -48 -17 -125 -47 -172 -68 -47 -21 -117 -50 -156 -64 -119 -44 -199 -106 -468 -358 -50 -45 -50 -47 -54 -115 -6 -95 12 -195 59 -343 22 -69 55 -195 74 -282 l35 -156 -5 -399 c-5 -484 -28 -873 -56 -924 -25 -48 -100 -148 -142 -188 -50 -49 -135 -84 -271 -111 -178 -36 -719 -24 -926 21 -75 17 -223 68 -262 92 -267 160 -339 216 -444 343 -153 185 -223 304 -248 419 -18 85 -42 742 -32 878 3 51 13 156 22 233 8 78 16 215 17 305 l2 164 -35 55 c-19 30 -51 75 -71 100 -21 25 -45 64 -54 87 -16 39 -34 55 -116 106 -14 8 -64 51 -111 94 -77 71 -101 86 -254 158 -197 93 -352 182 -409 235 -22 20 -53 47 -70 59 -73 55 -221 256 -310 422 -38 70 -77 167 -120 296 -35 106 -72 205 -82 220 -11 15 -38 68 -61 116 -23 48 -58 112 -78 142 l-36 55 -1454 0 -1454 0 0 -2470z"/>
<path d="M3070 4890 c0 -43 3 -50 19 -50 17 0 20 -8 23 -47 3 -41 6 -48 26 -51 20 -3 22 -8 22 -73 0 -62 2 -69 19 -69 12 0 21 8 24 23 2 12 5 -8 6 -45 1 -65 2 -68 26 -68 20 0 25 -5 25 -25 0 -20 5 -25 25 -25 23 0 25 -3 25 -50 0 -43 3 -50 19 -50 17 0 20 -8 23 -47 3 -41 6 -48 26 -51 20 -3 22 -8 22 -74 0 -70 0 -70 25 -66 22 5 25 2 25 -23 0 -23 4 -29 23 -29 18 0 22 -6 23 -33 1 -58 9 -67 59 -67 38 0 45 -3 45 -20 0 -16 9 -21 51 -26 43 -6 50 -10 46 -25 -5 -17 2 -19 67 -19 69 0 73 -1 72 -22 -1 -20 5 -23 47 -26 37 -2 47 -7 47 -20 0 -23 37 -26 43 -4 4 15 5 15 6 1 1 -10 13 -19 31 -22 21 -5 30 -12 30 -27 0 -15 9 -21 40 -26 31 -5 40 -11 40 -26 0 -16 5 -19 25 -16 14 3 25 1 25 -4 0 -6 11 -7 25 -4 22 6 25 3 25 -19 0 -23 3 -25 50 -25 47 0 50 -2 50 -25 0 -18 5 -25 19 -25 13 0 21 -8 23 -22 2 -15 11 -24 26 -26 14 -2 22 -10 22 -23 0 -12 7 -19 19 -19 13 0 21 -8 23 -22 2 -17 11 -24 31 -26 21 -3 27 -9 27 -28 0 -19 5 -24 26 -24 21 0 25 -4 23 -27 -5 -68 -2 -73 45 -73 39 0 45 -3 48 -22 2 -15 11 -24 26 -26 14 -2 22 -10 22 -23 0 -14 7 -19 25 -19 20 0 25 -5 25 -25 0 -18 5 -25 19 -25 13 0 21 -8 23 -22 2 -15 11 -24 26 -26 19 -3 22 -9 22 -48 0 -37 3 -44 19 -44 11 0 21 8 24 18 2 9 4 0 4 -22 1 -39 17 -60 41 -51 7 3 11 1 7 -4 -10 -18 7 -41 31 -41 24 0 24 -1 24 -95 l0 -95 26 0 c20 0 25 5 24 23 -1 12 -2 43 -1 70 1 39 4 47 20 47 14 0 20 10 25 41 4 22 4 44 1 50 -4 5 5 9 19 9 24 0 26 4 27 48 1 26 1 56 1 67 -1 17 0 17 4 3 3 -10 14 -18 25 -18 16 0 19 7 19 45 0 41 2 45 25 45 20 0 25 5 25 25 0 20 5 25 25 25 18 0 25 5 25 19 0 13 8 21 23 23 16 2 22 9 21 26 0 17 5 22 23 22 28 0 33 36 6 43 -13 3 -11 5 6 6 20 1 22 5 17 26 -6 22 -3 25 19 25 20 0 25 5 25 25 0 20 5 25 26 25 20 0 25 5 24 23 -6 67 -6 67 70 67 68 0 70 1 70 25 0 23 3 25 50 25 47 0 50 -2 50 -25 0 -20 5 -25 25 -25 18 0 25 -5 25 -20 0 -13 7 -20 20 -20 15 0 20 -7 20 -25 0 -20 5 -25 25 -25 23 0 25 -3 25 -50 l0 -50 50 0 c47 0 50 -2 50 -25 0 -20 5 -25 25 -25 20 0 25 -5 25 -26 0 -23 3 -26 25 -22 21 4 25 1 25 -18 0 -19 5 -24 24 -24 19 0 22 -4 18 -25 -3 -20 0 -25 16 -25 13 0 22 8 25 23 2 12 5 1 6 -25 1 -40 4 -48 20 -48 12 0 21 -9 25 -26 5 -20 12 -25 26 -21 16 4 20 0 20 -19 0 -19 5 -24 25 -24 23 0 25 -3 25 -50 0 -46 2 -50 24 -50 23 0 25 -5 28 -47 3 -41 6 -48 26 -51 13 -2 22 -10 22 -21 0 -13 10 -20 36 -24 44 -7 64 0 64 24 0 17 8 19 70 19 68 0 70 1 70 25 0 20 5 25 25 25 20 0 25 5 25 25 0 20 5 25 25 25 20 0 25 5 25 26 0 14 4 22 10 19 5 -3 25 -3 44 1 25 4 36 12 38 28 2 13 11 22 26 24 14 2 22 10 22 22 0 12 8 20 23 22 14 2 23 11 25 26 2 14 10 22 23 22 13 0 19 7 19 24 0 19 6 25 28 28 21 2 27 8 26 26 0 17 5 22 23 22 16 0 23 6 23 20 0 17 7 20 50 20 46 0 50 2 50 24 0 18 6 25 23 28 14 2 23 11 25 25 2 14 11 23 25 25 14 2 23 11 25 26 3 20 8 22 73 22 67 0 69 1 69 25 0 24 2 25 64 25 59 0 65 2 68 23 3 21 8 22 81 21 42 0 77 3 77 7 0 4 9 5 20 2 15 -4 20 0 20 16 0 21 18 26 78 21 18 -1 22 4 22 28 0 26 3 29 26 24 25 -4 26 -3 22 22 -5 23 -2 26 23 26 24 0 29 4 29 25 0 18 5 25 19 25 13 0 21 8 23 23 2 14 11 23 25 25 14 2 23 11 25 25 2 14 11 23 26 25 14 2 22 10 22 23 0 14 7 19 25 19 21 0 25 5 25 29 0 25 3 28 26 23 22 -4 26 -1 24 19 -5 53 0 68 23 71 18 2 23 10 25 43 4 50 13 59 54 57 28 -1 34 2 34 21 1 60 7 119 11 100 3 -15 12 -23 24 -23 16 0 19 8 20 43 1 23 3 34 6 25 7 -28 45 -23 43 5 -5 52 0 67 20 67 20 0 21 3 24 70 1 18 7 26 24 28 16 3 22 10 22 28 0 19 5 24 24 24 20 0 24 6 30 41 4 22 4 44 2 48 -3 5 6 6 19 3 24 -4 25 -2 25 47 0 48 1 51 26 51 20 0 25 5 24 23 -5 52 0 67 20 67 25 0 27 37 3 43 -14 4 -13 5 4 6 20 1 22 5 16 51 -6 49 -5 50 21 50 21 0 26 5 26 25 l0 25 -1632 -2 c-898 -1 -1612 -3 -1585 -5 39 -3 47 -8 47 -24 0 -14 7 -19 25 -19 18 0 25 5 25 20 0 15 7 20 25 20 18 0 25 -5 25 -20 0 -19 7 -20 95 -20 87 0 95 -2 95 -19 0 -11 -9 -21 -23 -25 -12 -3 -141 -5 -287 -4 l-265 0 3 44 4 43 46 4 c26 2 -472 4 -1105 5 l-1153 2 0 -50z m2165 -4 c-6 -29 -12 -36 -31 -36 -17 0 -24 6 -24 20 0 15 7 20 25 20 19 0 25 5 25 22 0 12 3 19 6 16 3 -3 2 -22 -1 -42z m905 -21 c0 -23 4 -25 45 -25 41 0 45 2 45 25 0 34 47 37 52 3 3 -20 10 -23 50 -26 39 -3 47 -6 50 -25 2 -17 12 -23 43 -28 22 -3 32 -7 23 -8 -11 0 -18 -9 -18 -21 0 -17 7 -20 45 -20 38 0 45 -3 45 -20 0 -11 -7 -20 -15 -20 -8 0 -15 -7 -15 -15 0 -8 7 -15 15 -15 8 0 14 6 13 13 -2 7 9 13 25 15 23 3 27 0 27 -22 0 -24 -3 -26 -44 -26 -39 0 -45 3 -48 23 -3 19 -10 22 -50 25 -39 3 -48 7 -48 22 0 22 -43 27 -167 22 -60 -3 -73 -7 -74 -20 -1 -15 -2 -15 -6 1 -2 9 -12 17 -21 18 -9 0 -72 0 -139 -1 -118 -1 -123 0 -123 19 0 13 -7 22 -17 23 -10 1 11 4 47 7 l65 6 3 48 3 47 95 0 c94 0 94 0 94 -25z m-338 -140 c-3 -16 -11 -25 -23 -25 -28 0 -25 37 4 43 12 2 23 5 23 6 1 0 -1 -10 -4 -24z m-55 -21 c-3 -3 -12 -4 -19 -1 -8 3 -5 6 6 6 11 1 17 -2 13 -5z m80 -1 c-4 -3 -10 -3 -14 0 -3 4 0 7 7 7 7 0 10 -3 7 -7z m540 0 c-4 -3 -10 -3 -14 0 -3 4 0 7 7 7 7 0 10 -3 7 -7z m2061 -350 c-10 -2 -18 -12 -18 -20 0 -9 -3 -14 -6 -10 -12 11 5 37 23 36 17 -1 17 -2 1 -6z m-3826 -253 c-3 -21 -10 -30 -23 -30 -29 0 -26 47 4 53 12 2 22 5 23 6 0 0 -1 -12 -4 -29z m-44 -53 c2 -12 -4 -20 -17 -24 -11 -3 -22 -12 -24 -22 -3 -9 -5 3 -6 27 -1 39 1 43 21 40 13 -2 24 -11 26 -21z m39 -4 c-4 -3 -7 0 -7 7 0 7 3 10 7 7 3 -4 3 -10 0 -14z m-960 -100 c-4 -3 -7 0 -7 7 0 7 3 10 7 7 3 -4 3 -10 0 -14z m240 -95 c-3 -8 -6 -5 -6 6 -1 11 2 17 5 13 3 -3 4 -12 1 -19z m2839 -73 c4 -8 3 -31 0 -50 -5 -26 -12 -35 -26 -35 -17 0 -20 7 -20 43 0 24 3 47 7 50 11 12 33 7 39 -8z m-39 -112 c-4 -3 -7 0 -7 7 0 7 3 10 7 7 3 -4 3 -10 0 -14z m700 -220 c-4 -3 -10 -3 -14 0 -3 4 0 7 7 7 7 0 10 -3 7 -7z m-1490 -49 c-3 -3 -12 -4 -19 -1 -8 3 -5 6 6 6 11 1 17 -2 13 -5z m-807 -58 c0 -18 -6 -25 -22 -28 -17 -2 -24 -11 -26 -30 -2 -20 -9 -28 -23 -28 -14 0 -19 7 -19 30 0 23 5 30 19 30 12 0 21 9 25 25 9 34 46 35 46 1z m-483 -11 c1 -15 0 -15 -3 -3 -3 9 -13 19 -22 22 -12 3 -12 4 3 3 12 -1 21 -10 22 -22z m2590 19 c-3 -3 -12 -4 -19 -1 -8 3 -5 6 6 6 11 1 17 -2 13 -5z m-757 -69 c0 -20 5 -25 26 -25 25 0 25 -1 22 -70 -2 -67 -14 -90 -39 -74 -5 3 -9 -4 -9 -15 0 -16 -6 -21 -25 -21 l-25 0 0 115 0 115 25 0 c20 0 25 -5 25 -25z m-1733 -7 c-3 -8 -6 -5 -6 6 -1 11 2 17 5 13 3 -3 4 -12 1 -19z m274 -61 c16 -4 19 -14 19 -71 0 -64 -1 -66 -25 -66 -26 0 -26 0 -23 88 1 48 3 80 5 71 2 -10 13 -19 24 -22z m46 7 c-3 -3 -12 -4 -19 -1 -8 3 -5 6 6 6 11 1 17 -2 13 -5z m-70 -176 c-3 -8 -6 -5 -6 6 -1 11 2 17 5 13 3 -3 4 -12 1 -19z m1480 0 c-3 -8 -6 -5 -6 6 -1 11 2 17 5 13 3 -3 4 -12 1 -19z m-1462 -67 c-6 -5 -25 10 -25 20 0 5 6 4 14 -3 8 -7 12 -15 11 -17z m1362 -38 c-4 -3 -7 0 -7 7 0 7 3 10 7 7 3 -4 3 -10 0 -14z m50 -95 c-3 -8 -6 -5 -6 6 -1 11 2 17 5 13 3 -3 4 -12 1 -19z m50 -45 c-4 -3 -7 0 -7 7 0 7 3 10 7 7 3 -4 3 -10 0 -14z"/>
<path d="M5957 4815 c-4 -25 -3 -26 42 -23 39 3 46 6 49 26 3 20 -1 22 -41 22 -40 0 -45 -3 -50 -25z"/>
<path d="M5477 3003 c4 -10 11 -21 17 -25 6 -4 -28 -8 -76 -8 -80 0 -88 -2 -88 -19 0 -11 8 -22 18 -25 14 -4 14 -5 -3 -4 -57 1 -65 -2 -65 -26 0 -19 -6 -25 -27 -28 -22 -2 -28 -8 -28 -28 -1 -20 -6 -24 -23 -23 -20 3 -22 -2 -24 -45 -1 -26 0 -68 1 -94 3 -46 2 -48 -23 -48 -25 0 -26 -3 -26 -50 0 -47 -2 -50 -25 -50 -26 0 -26 -1 -23 -67 3 -62 5 -68 26 -71 18 -3 22 1 22 22 0 24 3 26 50 26 47 0 50 -2 50 -26 0 -21 4 -25 23 -22 14 2 23 11 25 26 3 18 10 22 42 22 28 0 40 5 43 18 3 9 5 -2 6 -25 l1 -43 55 0 c48 0 55 -3 55 -19 0 -25 -25 -33 -98 -31 -97 3 -102 2 -102 -20 0 -20 15 -25 68 -20 21 1 22 -1 22 -99 l0 -101 48 0 c42 0 47 -2 47 -22 0 -22 -3 -23 -71 -20 -66 3 -71 5 -67 23 5 17 2 19 -21 13 -17 -4 -26 -2 -26 6 0 8 -10 11 -28 8 -25 -4 -28 -1 -24 19 3 18 0 23 -16 23 -11 0 -23 -8 -25 -17 -4 -17 -5 -17 -6 0 -1 11 -9 17 -26 17 -20 0 -25 5 -25 24 0 22 -5 25 -42 28 -38 3 -43 6 -44 28 -1 22 0 22 3 3 2 -13 11 -23 19 -23 10 0 14 13 14 45 0 38 -3 45 -20 45 -20 0 -25 15 -20 68 1 17 -4 22 -24 22 -25 0 -26 -2 -26 -69 0 -65 -2 -70 -22 -73 -20 -3 -23 -10 -26 -50 l-3 -48 -50 0 -49 0 0 -69 c0 -65 2 -70 23 -73 21 -3 22 -9 27 -98 5 -87 7 -95 25 -95 13 0 21 8 23 23 3 16 10 22 28 22 19 0 24 -5 24 -26 0 -22 4 -26 24 -22 l24 5 -2 -99 c-1 -92 0 -98 19 -99 17 -1 17 -2 3 -6 -13 -3 -18 -15 -18 -44 0 -32 3 -39 20 -39 17 0 20 -7 20 -50 0 -47 2 -50 25 -50 24 0 25 -2 25 -71 0 -65 2 -71 19 -66 15 4 20 -2 25 -32 3 -20 6 -55 6 -78 0 -39 2 -43 25 -43 20 0 25 -5 25 -25 0 -20 5 -25 25 -25 16 0 25 -6 25 -15 0 -8 9 -15 19 -15 20 0 37 -32 26 -50 -8 -13 28 0 37 14 5 7 8 4 8 -6 0 -15 10 -18 69 -18 65 0 70 -2 73 -22 l3 -23 288 -3 c278 -2 287 -2 287 17 0 11 -8 21 -17 23 -10 3 23 6 72 8 50 1 100 3 113 4 15 1 22 7 22 22 0 15 6 20 22 20 15 -1 27 7 33 22 5 12 18 22 27 22 13 0 18 8 18 29 0 25 3 28 26 23 22 -4 26 -1 24 19 -6 64 -1 79 25 79 24 0 25 2 25 66 0 57 3 67 20 71 19 5 24 22 23 86 0 11 8 17 24 17 18 0 23 5 23 26 0 21 -4 25 -19 21 -15 -3 -20 2 -25 25 -3 17 -6 41 -6 54 0 15 -6 24 -15 24 -11 0 -15 12 -15 45 0 32 4 45 14 45 15 0 29 27 21 40 -6 10 24 22 36 14 5 -3 9 45 9 115 l0 120 -27 3 c-24 3 -28 8 -31 40 -2 25 -9 39 -21 43 -13 4 -17 12 -13 30 4 21 1 25 -22 25 l-26 0 0 94 c0 90 -1 95 -22 98 -15 2 -24 11 -26 26 -3 21 -8 22 -97 22 -89 0 -94 -1 -97 -22 -2 -15 -11 -24 -25 -26 -15 -2 -23 -10 -23 -22 0 -12 -8 -20 -22 -22 -15 -2 -24 -11 -26 -25 -2 -15 -10 -23 -23 -23 -19 0 -20 -4 -23 -70 -1 -35 -43 -42 -48 -8 -2 15 -11 24 -25 26 -14 2 -23 11 -25 25 -3 20 -9 22 -73 22 -65 0 -70 -2 -73 -22 -2 -15 -10 -23 -22 -23 -12 0 -20 8 -22 23 -2 14 -11 23 -25 25 -17 3 -20 -1 -16 -17 3 -12 13 -22 22 -23 9 -1 -38 -4 -104 -8 -115 -5 -120 -6 -123 -27 -2 -15 -10 -23 -23 -23 -17 0 -19 8 -19 76 0 72 1 75 23 74 52 -5 67 0 67 20 0 17 8 19 73 22 66 3 72 5 75 26 3 20 0 22 -47 22 -48 0 -51 2 -51 25 0 23 3 25 50 25 47 0 50 2 50 25 0 23 4 25 44 25 36 0 46 4 51 20 3 11 15 20 26 20 14 0 19 7 19 25 0 23 4 25 48 26 93 2 97 3 100 26 2 14 11 23 25 25 14 2 23 11 25 25 3 18 -1 21 -20 17 -23 -5 -23 -5 -1 5 18 8 21 17 20 53 -2 36 -6 43 -24 46 -15 2 -23 10 -23 23 0 23 -13 24 -34 3 -15 -14 -16 -14 -17 3 -1 10 0 28 1 41 2 26 -12 29 -34 6 -15 -14 -16 -12 -16 25 0 37 -2 41 -25 41 -20 0 -25 5 -25 25 0 25 -14 31 -64 25 -18 -2 -18 -1 -3 15 10 9 17 21 17 26 0 5 -41 9 -90 9 -84 0 -91 -2 -101 -22 l-10 -23 5 23 c4 21 1 22 -65 22 -61 0 -68 -2 -62 -17z m190 -15 c-3 -8 -6 -5 -6 6 -1 11 2 17 5 13 3 -3 4 -12 1 -19z m-250 -45 c-4 -3 -7 0 -7 7 0 7 3 10 7 7 3 -4 3 -10 0 -14z m383 -143 c0 -15 7 -20 25 -20 20 0 25 -5 25 -25 l0 -24 -218 -3 -218 -3 4 27 c4 23 8 27 27 22 13 -3 26 -1 30 5 3 6 11 9 16 5 6 -3 13 3 16 15 5 20 11 21 149 21 137 0 144 -1 144 -20z m57 -202 c-3 -8 -6 -5 -6 6 -1 11 2 17 5 13 3 -3 4 -12 1 -19z m-260 -165 c-4 -3 -10 -3 -14 0 -3 4 0 7 7 7 7 0 10 -3 7 -7z m540 -168 c-4 -8 -14 -14 -24 -14 -17 1 -17 2 0 6 9 2 17 12 17 20 0 9 3 14 6 10 4 -3 4 -13 1 -22z m-740 -12 c-4 -3 -10 -3 -14 0 -3 4 0 7 7 7 7 0 10 -3 7 -7z m60 0 c-4 -3 -10 -3 -14 0 -3 4 0 7 7 7 7 0 10 -3 7 -7z m380 -49 c-3 -3 -12 -4 -19 -1 -8 3 -5 6 6 6 11 1 17 -2 13 -5z m240 0 c-3 -3 -12 -4 -19 -1 -8 3 -5 6 6 6 11 1 17 -2 13 -5z m340 0 c-3 -3 -12 -4 -19 -1 -8 3 -5 6 6 6 11 1 17 -2 13 -5z m-460 -31 c-4 -3 -7 0 -7 7 0 7 3 10 7 7 3 -4 3 -10 0 -14z m-410 -19 c-3 -3 -12 -4 -19 -1 -8 3 -5 6 6 6 11 1 17 -2 13 -5z m440 0 c-3 -3 -12 -4 -19 -1 -8 3 -5 6 6 6 11 1 17 -2 13 -5z m-570 -36 c-3 -8 -6 -5 -6 6 -1 11 2 17 5 13 3 -3 4 -12 1 -19z m-530 -95 c-4 -3 -7 0 -7 7 0 7 3 10 7 7 3 -4 3 -10 0 -14z m79 -9 c15 6 16 4 19 -35 2 -22 -2 -25 -21 -21 -20 3 -23 10 -22 46 1 22 3 33 6 23 2 -11 9 -16 18 -13z m1242 -10 c13 -4 22 -14 22 -26 0 -17 -6 -19 -67 -16 -54 2 -68 6 -71 20 -2 11 5 18 20 21 37 7 71 7 96 1z m119 -36 c-3 -8 -6 -5 -6 6 -1 11 2 17 5 13 3 -3 4 -12 1 -19z m141 -14 c20 -4 22 -10 22 -62 0 -60 -11 -82 -42 -82 -15 0 -18 -8 -18 -45 0 -41 -2 -45 -25 -45 -19 0 -25 -6 -26 -22 l-2 -23 -4 23 c-3 14 -12 22 -25 22 -16 0 -19 -5 -16 -23 l4 -23 -218 -2 -218 -1 0 94 c0 89 1 94 23 97 14 2 23 11 25 25 2 14 11 23 25 25 13 2 23 11 25 24 2 16 8 20 28 16 15 -3 24 -11 24 -23 0 -18 10 -19 140 -19 133 0 140 1 140 20 0 13 7 20 19 20 11 0 22 4 25 8 5 8 44 7 94 -4z m-1521 -21 c-4 -3 -7 0 -7 7 0 7 3 10 7 7 3 -4 3 -10 0 -14z m80 -70 c-3 -10 -5 -4 -5 12 0 17 2 24 5 18 2 -7 2 -21 0 -30z m-80 10 c-4 -3 -7 0 -7 7 0 7 3 10 7 7 3 -4 3 -10 0 -14z m663 -82 c0 -14 5 -18 20 -14 16 4 21 -1 26 -26 6 -29 9 -31 53 -31 l46 0 2 -45 c2 -51 -4 -58 -57 -57 -32 1 -39 -3 -42 -21 -2 -16 -10 -22 -28 -23 -67 -3 -70 -4 -70 -24 0 -18 -7 -20 -70 -20 -63 0 -70 2 -70 20 0 20 17 26 68 21 20 -2 22 2 22 49 l0 50 -115 0 -115 0 0 25 c0 25 0 25 95 25 l95 0 0 26 c0 17 6 28 20 31 11 3 20 12 20 19 0 10 14 14 50 14 43 0 50 -3 50 -19z m857 -43 c-3 -7 -5 -2 -5 12 0 14 2 19 5 13 2 -7 2 -19 0 -25z m-1200 -34 c-3 -3 -12 -4 -19 -1 -8 3 -5 6 6 6 11 1 17 -2 13 -5z m340 -166 c-3 -8 -6 -5 -6 6 -1 11 2 17 5 13 3 -3 4 -12 1 -19z m-60 -554 c-3 -3 -12 -4 -19 -1 -8 3 -5 6 6 6 11 1 17 -2 13 -5z"/>
<path d="M6139 1849 c-1 -17 -3 -19 -6 -6 -2 9 -13 17 -24 17 -17 0 -19 -8 -19 -70 0 -62 2 -70 19 -70 11 0 22 8 24 18 4 16 5 16 6 0 1 -15 11 -18 70 -18 l69 0 6 31 c5 25 10 30 26 26 15 -4 20 0 20 14 0 15 -10 20 -50 25 -40 5 -50 10 -50 25 0 11 -6 19 -14 19 -7 0 -28 3 -45 6 -28 6 -31 4 -32 -17z"/>
<path d="M5710 1695 c0 -8 7 -15 15 -15 8 0 15 7 15 15 0 8 -7 15 -15 15 -8 0 -15 -7 -15 -15z"/>
<path d="M6503 2533 c-21 -4 -23 -10 -22 -56 1 -29 4 -42 6 -29 2 12 9 22 14 22 5 0 10 8 11 18 1 9 4 -19 7 -63 l6 -80 45 0 45 0 3 73 c3 71 3 72 -23 72 -18 0 -25 5 -25 19 0 17 -21 33 -38 30 -4 -1 -17 -4 -29 -6z m74 -80 c-4 -3 -7 0 -7 7 0 7 3 10 7 7 3 -4 3 -10 0 -14z m0 -95 c-3 -8 -6 -5 -6 6 -1 11 2 17 5 13 3 -3 4 -12 1 -19z"/>
<path d="M5900 2466 c0 -19 -5 -26 -19 -26 -12 0 -21 -8 -24 -22 l-4 -23 -2 23 c-1 17 -7 22 -27 22 -21 0 -25 -4 -22 -22 3 -20 10 -23 51 -26 45 -3 47 -2 47 22 0 21 5 26 26 26 21 0 25 4 22 23 -2 14 -11 23 -25 25 -19 3 -23 -1 -23 -22z"/>
<path d="M5948 2368 c-2 -15 -11 -24 -25 -26 -15 -2 -23 -10 -23 -23 0 -16 7 -19 49 -19 l49 0 0 45 c0 41 -2 45 -23 45 -17 0 -25 -6 -27 -22z"/>
<path d="M6817 2053 c-4 -3 -7 -60 -7 -125 0 -111 -1 -118 -20 -118 -18 0 -20 -8 -22 -117 -3 -113 -4 -118 -25 -121 -18 -3 -23 -12 -29 -48 -5 -33 -11 -44 -24 -44 -13 0 -19 -11 -24 -41 -4 -22 -4 -44 -1 -50 4 -5 -5 -9 -19 -9 -24 0 -26 -3 -26 -45 0 -41 -2 -45 -25 -45 -20 0 -25 -5 -25 -24 0 -18 -6 -25 -22 -28 -20 -3 -23 -10 -26 -50 -3 -39 -7 -48 -21 -48 -19 0 -35 -25 -26 -40 6 -10 -24 -22 -36 -14 -5 3 -9 -4 -9 -15 0 -16 -6 -21 -25 -21 -23 0 -25 -4 -26 -47 -1 -27 -4 -38 -6 -25 -3 14 -12 22 -25 22 -16 0 -19 -5 -16 -25 3 -13 1 -22 -4 -19 -19 12 -48 -8 -48 -32 0 -14 -4 -22 -10 -19 -5 3 -25 3 -45 -1 -29 -5 -35 -11 -35 -31 0 -13 -4 -22 -9 -19 -14 9 -39 -4 -44 -22 -4 -15 -5 -15 -6 1 -1 10 -9 17 -21 17 -15 0 -20 -7 -20 -26 0 -24 -3 -25 -47 -24 -121 4 -143 1 -143 -20 0 -19 -7 -20 -120 -20 -113 0 -120 1 -120 20 0 14 -7 20 -22 21 -126 4 -123 3 -126 27 -2 15 -11 22 -25 23 -57 3 -62 5 -65 26 -3 18 -12 23 -47 28 -31 5 -45 12 -48 26 -3 11 -14 19 -26 19 -16 0 -21 6 -21 25 0 23 -3 25 -49 25 -44 0 -50 3 -53 23 -2 14 -11 23 -25 25 -15 2 -23 10 -23 22 0 12 -8 20 -22 22 -15 2 -24 11 -26 26 -2 14 -10 22 -23 22 -14 0 -19 7 -19 25 0 20 -5 25 -25 25 -23 0 -25 3 -25 50 0 47 -2 50 -25 50 -23 0 -25 4 -25 45 0 41 -2 45 -25 45 -23 0 -24 3 -27 73 -3 66 -5 72 -25 75 -15 2 -23 10 -23 23 0 14 -7 19 -25 19 -18 0 -25 -5 -25 -20 0 -15 7 -20 25 -20 25 0 25 0 25 -95 0 -87 2 -95 19 -95 26 0 33 -14 33 -61 -1 -31 3 -39 17 -39 20 0 31 -26 31 -72 0 -23 4 -28 25 -28 24 0 25 -3 25 -59 0 -50 3 -61 23 -74 18 -12 22 -23 21 -61 -1 -40 2 -46 20 -47 17 -1 18 -2 4 -6 -25 -6 -23 -43 1 -43 13 0 21 -8 23 -22 2 -15 11 -24 26 -26 19 -3 22 -9 22 -48 0 -40 2 -44 25 -44 20 0 25 -5 25 -26 0 -20 5 -25 23 -24 57 5 77 0 77 -19 0 -13 8 -21 23 -23 16 -2 22 -9 21 -26 0 -15 5 -22 18 -22 10 0 18 7 18 17 0 9 3 13 7 10 3 -4 6 -23 5 -42 -1 -31 1 -35 26 -37 15 -1 36 -2 47 -3 11 -1 30 -3 43 -4 15 -1 22 -7 22 -20 0 -20 32 -37 48 -27 5 3 7 -6 4 -20 -4 -25 -3 -26 44 -24 27 1 73 1 102 1 49 -1 52 -3 52 -26 l0 -25 235 0 235 0 0 25 c0 23 3 25 50 25 47 0 50 2 50 26 0 20 4 24 19 19 11 -3 22 -2 25 3 3 5 17 7 31 4 20 -3 25 0 25 16 0 13 9 22 25 26 18 5 25 13 25 30 0 18 6 23 28 24 55 2 62 5 62 29 0 18 5 23 25 23 18 0 25 5 25 19 0 17 8 20 48 23 40 3 47 6 50 26 3 16 10 22 28 22 18 0 24 5 24 23 0 16 6 24 18 24 70 -1 72 0 72 47 0 39 3 45 23 48 21 3 22 7 22 98 0 91 -1 95 -22 98 -20 3 -23 9 -23 48 0 40 2 44 25 44 l25 0 -2 193 c-3 191 -3 192 -25 195 l-23 3 0 265 c0 249 -1 264 -18 264 -10 0 -22 -3 -25 -7z m50 -555 c-3 -8 -6 -5 -6 6 -1 11 2 17 5 13 3 -3 4 -12 1 -19z m-170 -65 c-4 -3 -10 -3 -14 0 -3 4 0 7 7 7 7 0 10 -3 7 -7z m-1724 -190 c-7 -2 -19 -2 -25 0 -7 3 -2 5 12 5 14 0 19 -2 13 -5z m1634 1 c-3 -3 -12 -4 -19 -1 -8 3 -5 6 6 6 11 1 17 -2 13 -5z m260 -86 c-3 -8 -6 -5 -6 6 -1 11 2 17 5 13 3 -3 4 -12 1 -19z m0 -135 c-4 -3 -7 0 -7 7 0 7 3 10 7 7 3 -4 3 -10 0 -14z m-1630 -55 c-3 -8 -6 -5 -6 6 -1 11 2 17 5 13 3 -3 4 -12 1 -19z m1440 -290 c-3 -8 -6 -5 -6 6 -1 11 2 17 5 13 3 -3 4 -12 1 -19z m-1260 -145 c-4 -3 -7 0 -7 7 0 7 3 10 7 7 3 -4 3 -10 0 -14z"/>
</g>
<g id="layer105" fill="#ffffff" stroke="none">
<path d="M0 2470 l0 -2470 6000 0 6000 0 0 2470 0 2470 -1449 0 -1449 0 -50 -92 c-27 -51 -69 -124 -94 -163 -25 -38 -54 -90 -65 -115 -18 -41 -47 -92 -198 -355 -112 -194 -146 -248 -217 -337 -41 -51 -84 -107 -96 -124 -25 -36 -77 -75 -297 -220 -185 -122 -225 -144 -343 -186 -48 -17 -125 -47 -172 -68 -47 -21 -117 -50 -156 -64 -119 -44 -199 -106 -468 -358 -50 -45 -50 -47 -54 -115 -6 -95 12 -195 59 -343 22 -69 55 -195 74 -282 l35 -156 -5 -399 c-5 -484 -28 -873 -56 -924 -25 -48 -100 -148 -142 -188 -50 -49 -135 -84 -271 -111 -172 -35 -727 -23 -921 20 -80 17 -227 68 -267 93 -269 162 -339 216 -444 343 -153 185 -223 304 -248 419 -18 85 -42 742 -32 878 3 51 13 156 22 233 8 78 16 215 17 305 l2 164 -35 55 c-19 30 -51 75 -71 100 -21 25 -45 64 -54 87 -16 39 -34 55 -116 106 -14 8 -64 51 -111 94 -77 71 -101 86 -254 158 -197 93 -352 182 -409 235 -22 20 -53 47 -70 59 -73 55 -221 256 -310 422 -38 70 -77 167 -120 296 -35 106 -72 205 -82 220 -11 15 -38 68 -61 116 -23 48 -58 112 -78 142 l-36 55 -1454 0 -1454 0 0 -2470z"/>
<path d="M3070 4915 c0 -18 5 -25 20 -25 17 0 19 -8 22 -72 3 -66 5 -73 25 -76 19 -3 22 -11 25 -50 3 -42 5 -47 26 -45 20 3 22 -1 22 -47 0 -47 2 -50 25 -50 23 0 25 -4 25 -45 0 -41 2 -45 25 -45 23 0 25 -3 25 -50 0 -43 3 -50 20 -50 15 0 20 -7 20 -25 0 -20 5 -25 25 -25 23 0 25 -3 25 -51 0 -50 1 -51 26 -46 24 4 25 3 23 -37 -5 -89 -1 -106 26 -106 20 0 25 -5 25 -25 0 -20 5 -25 23 -25 18 0 23 -5 23 -22 -1 -20 5 -23 47 -26 38 -2 47 -7 47 -21 0 -14 10 -20 41 -25 22 -4 44 -4 48 -2 5 3 6 -6 3 -19 -4 -25 -4 -25 72 -25 74 0 76 -1 76 -25 0 -23 3 -25 50 -25 42 0 50 -3 50 -19 0 -14 10 -21 35 -25 20 -4 40 -4 45 -1 6 3 10 -5 10 -18 0 -21 6 -25 41 -31 22 -4 44 -4 50 -1 5 4 8 -4 6 -17 -2 -18 3 -24 26 -26 21 -3 27 -9 27 -28 0 -22 4 -24 50 -24 47 0 50 -2 50 -25 0 -23 4 -25 45 -25 41 0 45 -2 45 -25 0 -20 5 -25 23 -25 16 0 24 -6 24 -17 -1 -64 3 -73 28 -73 20 0 25 -5 25 -25 0 -20 5 -25 25 -25 20 0 25 -5 25 -25 0 -18 5 -25 20 -25 15 0 20 -7 20 -25 0 -23 3 -25 50 -25 l50 0 0 -45 c0 -41 2 -45 25 -45 20 0 25 -5 25 -25 0 -18 5 -25 19 -25 13 0 21 -8 23 -22 2 -15 11 -24 26 -26 16 -3 22 -10 22 -28 0 -19 5 -24 25 -24 23 0 25 -4 25 -45 0 -41 2 -45 25 -45 20 0 25 -5 25 -25 0 -20 5 -25 25 -25 24 0 25 -2 25 -76 0 -72 1 -75 23 -72 20 3 22 9 25 74 3 66 5 71 22 67 21 -6 22 -4 24 107 1 41 3 45 24 42 18 -3 22 2 22 22 0 21 5 26 25 26 20 0 25 5 25 25 0 20 5 25 25 25 20 0 25 5 25 25 0 20 5 25 25 25 23 0 25 4 25 45 0 41 2 45 25 45 20 0 25 5 25 25 0 18 5 25 20 25 15 0 20 7 20 25 0 20 5 25 25 25 23 0 25 3 25 50 0 47 -2 50 -25 50 -18 0 -25 5 -25 20 0 15 7 20 25 20 18 0 25 -5 25 -19 0 -20 25 -35 41 -25 5 3 9 25 9 50 l0 44 120 0 120 0 0 -25 c0 -20 5 -25 25 -25 18 0 25 -5 25 -20 0 -13 7 -20 20 -20 15 0 20 -7 20 -25 0 -20 5 -25 25 -25 20 0 25 -5 25 -25 0 -20 5 -25 25 -25 20 0 24 -5 22 -22 -2 -18 4 -24 26 -26 21 -3 27 -9 27 -28 0 -22 4 -24 48 -24 44 0 49 -2 48 -22 -1 -16 5 -24 21 -26 14 -2 23 -11 25 -25 2 -16 10 -22 26 -21 17 0 22 -5 22 -23 0 -18 6 -23 24 -23 19 0 24 -5 24 -22 -4 -63 2 -80 22 -75 16 4 20 0 20 -19 0 -19 5 -24 24 -24 19 0 25 -6 28 -27 2 -22 8 -28 26 -27 20 1 22 -4 22 -48 0 -45 2 -48 25 -48 20 0 25 -5 25 -25 0 -20 5 -25 26 -25 21 0 25 -4 21 -20 -4 -17 0 -20 24 -20 22 0 29 5 29 19 0 17 8 20 48 23 42 3 47 6 46 26 -1 20 3 22 47 22 46 0 49 2 49 25 0 20 5 25 25 25 20 0 25 5 25 25 0 20 5 25 25 25 20 0 25 5 25 23 0 18 5 23 23 23 16 -1 22 5 22 19 0 16 8 21 45 25 37 4 46 9 48 28 2 14 10 22 23 22 14 0 19 7 19 25 0 20 5 25 25 25 25 0 26 2 29 68 1 13 12 18 51 22 44 4 50 8 49 28 0 17 5 22 23 22 18 0 23 6 23 24 0 23 5 25 48 28 40 3 47 6 50 25 3 19 11 22 50 25 42 3 47 5 45 26 -3 20 1 22 47 22 47 0 50 2 50 26 0 24 3 25 43 23 23 -1 77 -2 121 -1 72 2 78 3 73 22 -4 17 1 19 47 22 43 3 51 6 51 23 0 13 8 22 25 25 18 4 24 12 23 26 -1 13 4 20 15 20 72 0 82 4 82 29 0 18 5 25 19 25 13 0 21 8 23 23 2 14 11 23 25 25 14 2 23 11 25 25 2 14 11 23 26 25 14 2 22 10 22 23 0 14 7 19 25 19 25 0 28 8 29 81 0 9 8 15 20 15 14 -1 22 6 24 21 2 14 11 23 25 25 19 3 22 10 25 50 3 39 6 47 25 50 16 2 21 9 20 26 -2 17 2 22 22 22 23 0 25 3 25 50 0 49 1 50 25 44 22 -5 25 -3 25 19 0 19 6 26 23 29 19 3 22 10 25 51 3 38 7 47 22 47 12 0 20 8 22 23 2 14 11 23 26 25 22 3 23 6 27 77 0 15 6 19 23 17 19 -3 22 2 24 30 0 18 1 41 0 51 -1 12 6 17 23 17 23 0 25 4 25 48 0 44 2 49 23 48 19 -1 22 5 25 47 3 39 6 47 23 47 16 0 19 7 19 50 0 47 2 50 25 50 20 0 25 5 25 25 l0 25 -1490 0 -1490 0 0 -25 c0 -24 2 -25 75 -25 71 0 75 -1 75 -23 0 -17 -6 -23 -22 -23 -168 -1 -179 -3 -176 -26 l3 -23 -187 -3 -188 -2 0 23 c0 21 -6 25 -41 30 -23 3 -56 3 -75 0 -31 -5 -34 -4 -34 21 0 21 5 26 25 26 20 0 25 5 25 25 l0 25 -1080 0 -1080 0 0 -25z m3212 -47 c3 -20 10 -23 50 -26 39 -3 47 -6 50 -25 2 -18 11 -23 48 -27 37 -4 45 -9 45 -25 0 -17 8 -20 48 -23 l47 -3 0 -45 0 -44 -44 0 c-39 0 -45 3 -48 23 -3 21 -8 22 -99 25 -91 3 -97 4 -92 22 5 19 0 20 -71 20 -69 0 -76 -2 -76 -20 0 -14 -7 -20 -24 -20 -19 0 -23 4 -19 20 5 19 0 20 -121 20 -119 0 -126 -1 -126 -20 0 -18 -7 -20 -70 -20 -68 0 -70 -1 -70 -25 0 -24 -2 -25 -75 -25 -73 0 -75 -1 -75 -25 0 -20 -5 -25 -26 -25 -21 0 -25 4 -22 23 2 14 11 23 25 25 14 2 23 11 25 25 3 19 10 22 51 25 38 3 47 7 47 22 0 17 9 19 73 22 64 3 72 5 72 23 0 18 8 21 70 25 l70 5 3 48 3 47 164 0 c162 0 164 0 167 -22z m-1109 -47 c6 -24 0 -31 -25 -31 -13 0 -18 7 -18 25 0 31 35 35 43 6z m-133 -51 c0 -15 -7 -20 -25 -20 -18 0 -25 5 -25 20 0 15 7 20 25 20 18 0 25 -5 25 -20z m-290 -240 c0 -15 -7 -20 -25 -20 -20 0 -25 -5 -25 -25 0 -20 -5 -25 -26 -25 -21 0 -25 4 -22 23 2 14 11 23 26 25 14 2 22 10 22 23 0 14 7 19 25 19 18 0 25 -5 25 -20z m720 -145 c0 -20 -5 -25 -25 -25 -20 0 -25 -5 -25 -25 0 -20 -5 -25 -25 -25 -20 0 -25 5 -25 25 0 20 5 25 25 25 20 0 25 5 25 25 0 20 5 25 25 25 20 0 25 -5 25 -25z m-142 -97 c-2 -15 -11 -24 -25 -26 -15 -2 -23 -10 -23 -23 0 -14 -7 -19 -25 -19 -18 0 -25 5 -25 20 0 15 7 20 25 20 20 0 25 5 25 25 0 20 5 25 26 25 21 0 25 -4 22 -22z m-678 -143 c0 -20 -5 -24 -22 -22 -21 2 -24 -3 -28 -48 -4 -42 -8 -50 -25 -50 -15 0 -20 -7 -20 -25 0 -18 -6 -26 -23 -28 -14 -2 -22 -10 -22 -23 0 -14 -7 -19 -25 -19 -18 0 -25 5 -25 20 0 15 7 20 25 20 23 0 25 3 25 49 0 44 3 50 23 53 19 3 22 10 25 51 l3 47 45 0 c40 0 44 -2 44 -25z m675 -25 l0 -45 -47 -3 c-45 -3 -48 -2 -48 22 0 18 6 25 23 28 14 2 23 11 25 26 3 17 9 22 25 20 19 -3 22 -9 22 -48z m475 -165 c0 -23 -4 -25 -45 -25 -38 0 -45 3 -45 19 0 16 8 21 43 24 23 2 43 4 45 5 1 1 2 -9 2 -23z m-240 -50 c0 -20 -5 -25 -25 -25 -18 0 -25 5 -25 18 0 24 8 32 32 32 13 0 18 -7 18 -25z m-92 -47 c-2 -15 -11 -24 -25 -26 -19 -3 -23 1 -23 22 0 21 5 26 26 26 21 0 25 -4 22 -22z m-190 -96 c3 -18 -1 -22 -22 -22 -19 0 -26 5 -26 18 0 39 43 43 48 4z m522 3 c0 -23 -4 -25 -45 -25 -41 0 -45 2 -45 25 0 23 4 25 45 25 41 0 45 -2 45 -25z m915 -53 c1 -69 0 -72 -22 -72 -22 0 -23 4 -23 68 0 73 4 85 30 80 12 -3 15 -19 15 -76z m-1925 3 c0 -18 -5 -25 -20 -25 -15 0 -20 7 -20 25 0 18 5 25 20 25 15 0 20 -7 20 -25z m340 -50 c0 -20 -5 -25 -25 -25 -20 0 -25 -5 -25 -25 0 -18 -5 -25 -20 -25 -15 0 -20 7 -20 25 0 18 5 25 20 25 13 0 20 7 20 18 0 10 3 22 7 25 3 4 15 7 25 7 13 0 18 -7 18 -25z m150 -145 c0 -15 -7 -20 -25 -20 -20 0 -25 -5 -25 -25 0 -20 -5 -25 -25 -25 -20 0 -25 -5 -25 -25 0 -20 -5 -25 -25 -25 -20 0 -25 -5 -25 -25 0 -18 -5 -25 -20 -25 -18 0 -25 -16 -21 -42 0 -5 -10 -8 -24 -8 -23 0 -25 -4 -25 -45 0 -41 -2 -45 -25 -45 -24 0 -25 -2 -27 -77 -1 -43 0 -97 1 -121 3 -41 1 -43 -21 -40 -23 3 -23 5 -26 140 -3 135 -2 137 20 140 20 3 23 10 26 50 3 39 6 47 25 50 14 2 23 11 25 26 2 14 10 22 23 22 14 0 19 7 19 25 0 20 5 25 25 25 20 0 25 5 25 25 0 20 5 25 25 25 18 0 25 5 25 20 0 17 7 20 50 20 43 0 50 -3 50 -20z m-490 -245 c0 -20 5 -25 25 -25 18 0 25 -5 25 -20 0 -15 -7 -20 -25 -20 -18 0 -25 5 -25 20 0 13 -7 20 -20 20 -15 0 -20 7 -20 25 0 18 5 25 20 25 15 0 20 -7 20 -25z m1640 0 c0 -20 5 -25 26 -25 l26 0 -4 -92 c-4 -89 -5 -93 -26 -90 -20 3 -22 -1 -22 -47 0 -47 -2 -51 -24 -51 l-23 0 -2 165 -2 165 26 0 c20 0 25 -5 25 -25z"/>
<path d="M5248 4933 c6 -2 18 -2 25 0 6 3 1 5 -13 5 -14 0 -19 -2 -12 -5z"/>
<path d="M5617 3013 c-4 -3 -7 -15 -7 -25 0 -16 -10 -18 -95 -18 -95 0 -95 0 -95 -25 0 -24 -2 -25 -70 -25 -68 0 -70 -1 -70 -25 0 -20 -5 -25 -25 -25 -27 0 -31 -13 -26 -97 2 -40 1 -43 -23 -43 -24 0 -26 -3 -26 -50 0 -47 -2 -50 -25 -50 -25 0 -25 0 -25 -95 l0 -95 50 0 c47 0 50 -2 50 -26 0 -21 4 -25 23 -22 14 2 23 11 25 26 3 16 10 22 28 22 19 0 24 5 24 25 0 18 5 25 20 25 17 0 20 -7 20 -50 l0 -50 70 0 c68 0 70 1 70 25 l0 25 100 0 100 0 0 25 c0 23 4 25 45 25 38 0 45 3 45 20 0 15 7 20 25 20 23 0 25 3 25 50 l0 50 48 0 c44 0 49 -2 48 -22 -1 -18 5 -23 24 -23 23 0 25 4 28 47 3 39 6 47 25 50 30 4 30 42 0 46 -17 3 -23 10 -23 28 0 19 -5 24 -24 24 -18 0 -26 6 -28 23 -2 16 -9 21 -26 20 -20 -3 -22 1 -22 47 0 47 -2 50 -25 50 -20 0 -25 5 -25 25 0 25 0 25 -95 25 -95 0 -95 0 -95 25 0 18 -5 25 -18 25 -10 0 -22 -3 -25 -7z m-57 -168 l0 -25 120 0 c113 0 120 -1 120 -20 0 -15 7 -20 25 -20 23 0 25 -3 25 -50 l0 -50 -70 0 c-68 0 -70 1 -70 25 l0 25 -100 0 -100 0 0 -25 c0 -24 -2 -25 -70 -25 -68 0 -70 1 -70 25 0 20 5 24 23 22 17 -2 23 4 25 26 3 21 9 27 28 27 17 0 24 5 24 20 0 15 7 20 26 20 23 0 26 3 22 25 -4 21 -1 25 18 25 19 0 24 -5 24 -25z m240 -284 c0 -22 -26 -31 -92 -31 -45 0 -48 2 -48 25 0 24 2 25 70 25 62 0 70 -2 70 -19z"/>
<path d="M6522 2438 c3 -88 4 -93 26 -96 18 -3 22 1 22 22 0 21 5 26 25 26 20 0 25 5 25 25 0 20 -5 25 -26 25 -18 0 -25 5 -23 18 5 55 -1 72 -26 72 l-26 0 3 -92z"/>
<path d="M5802 2418 c2 -15 11 -24 26 -26 18 -3 22 1 22 22 0 21 -5 26 -26 26 -21 0 -25 -4 -22 -22z"/>
<path d="M4990 2364 c0 -21 4 -25 23 -22 14 2 23 11 25 26 3 18 -1 22 -22 22 -21 0 -26 -5 -26 -26z"/>
<path d="M5393 2343 c-63 -3 -73 -6 -73 -22 0 -22 36 -29 128 -25 72 3 81 8 66 32 -12 19 -19 20 -121 15z"/>
<path d="M5923 2343 c-14 -3 -23 -12 -23 -24 0 -16 7 -19 51 -19 47 0 50 2 47 23 -3 23 -28 30 -75 20z"/>
<path d="M6183 2333 c-3 -7 -2 -17 2 -23 4 -6 -4 -10 -19 -10 -21 0 -26 -5 -26 -25 0 -20 -5 -25 -25 -25 -20 0 -25 -5 -25 -25 0 -18 -5 -25 -19 -25 -13 0 -21 -8 -23 -22 -3 -20 -10 -23 -50 -26 l-47 -3 -3 48 -3 48 -47 3 c-46 3 -48 2 -48 -22 l0 -26 -145 0 -145 0 0 -25 c0 -23 -4 -25 -45 -25 l-45 0 0 50 0 50 -50 0 -50 0 0 -50 c0 -47 2 -50 25 -50 20 0 25 -5 25 -25 0 -20 5 -25 25 -25 23 0 24 -3 23 -45 l-2 -45 -48 0 c-44 0 -48 2 -45 23 2 20 -3 22 -45 25 -40 3 -48 6 -48 23 0 19 -27 25 -82 21 -13 -1 -18 6 -18 23 0 20 -5 25 -25 25 -20 0 -25 5 -25 25 0 23 -4 25 -45 25 l-45 0 0 50 c0 47 -2 50 -25 50 -20 0 -25 -5 -26 -27 -1 -42 -1 -336 0 -350 1 -7 13 -13 27 -13 24 0 25 -3 23 -42 -1 -24 -2 -89 -1 -145 2 -95 4 -103 22 -103 17 0 19 -8 22 -72 3 -68 4 -73 26 -72 20 1 22 -4 22 -48 0 -45 2 -48 26 -48 24 0 25 -3 23 -42 -1 -24 -2 -78 -1 -120 2 -76 3 -78 27 -78 20 0 25 -5 25 -25 0 -23 3 -25 48 -25 44 0 49 -2 48 -22 -1 -18 4 -23 22 -22 17 0 22 -5 22 -23 0 -22 2 -23 95 -23 95 0 95 0 95 -25 l0 -25 220 0 220 0 0 25 0 25 121 0 c117 0 120 1 117 21 -3 18 3 22 41 25 25 2 46 6 48 8 2 1 4 20 6 42 2 33 6 40 27 44 17 4 25 12 24 26 0 14 6 20 20 20 18 -1 21 6 24 51 3 47 5 52 25 50 20 -2 22 3 25 46 2 38 7 47 21 47 15 0 19 11 23 63 3 34 3 90 0 125 -4 52 -7 62 -23 62 -16 0 -19 8 -19 45 0 37 3 45 19 45 14 0 20 10 24 37 7 42 -10 70 -37 60 -12 -5 -14 -16 -9 -52 l6 -45 -52 0 c-48 0 -51 -2 -51 -25 0 -17 -5 -24 -17 -23 -10 1 -44 0 -75 0 -55 -2 -58 -3 -58 -27 l0 -25 -115 0 -115 0 0 25 c0 23 -3 25 -50 25 -47 0 -50 2 -50 25 0 20 -5 25 -25 25 -24 0 -25 2 -25 69 l0 70 48 3 c40 3 47 6 50 25 2 14 11 23 25 25 14 2 23 11 25 26 3 16 10 22 28 22 18 0 24 5 24 23 0 23 0 24 140 25 l140 1 0 -25 c0 -22 4 -25 28 -22 21 2 27 8 25 26 -3 20 1 22 48 22 l50 0 -3 48 c-3 42 -5 47 -25 45 -21 -3 -23 1 -23 47 0 47 -1 50 -26 50 -26 0 -26 0 -23 72 l4 71 -99 1 c-68 1 -100 -3 -103 -11z m-527 -545 c-1 -19 4 -23 27 -21 24 2 26 -1 21 -23 -5 -21 -3 -24 23 -24 28 0 29 -2 28 -47 0 -42 -3 -48 -25 -53 -16 -4 -25 -13 -25 -25 0 -14 -7 -20 -25 -20 -63 -3 -70 -5 -70 -24 0 -17 -8 -20 -47 -23 -41 -3 -48 -6 -51 -25 -3 -22 -7 -23 -118 -23 l-114 0 0 25 c0 23 4 25 45 25 38 0 45 3 45 19 0 17 8 20 48 23 40 3 47 6 50 26 3 22 2 22 -117 22 l-121 0 0 25 c0 20 -5 25 -25 25 -20 0 -25 5 -25 25 0 25 0 25 100 25 l100 0 -7 45 -6 45 145 0 c144 0 145 0 144 -22z"/>
<path d="M4888 2058 c-2 -24 -2 -78 0 -120 3 -75 4 -78 28 -78 l24 0 0 120 0 120 -24 0 c-22 0 -25 -5 -28 -42z"/>
<path d="M6090 1935 c0 -20 5 -25 25 -25 20 0 25 5 25 25 0 20 -5 25 -25 25 -20 0 -25 -5 -25 -25z"/>
<path d="M6140 1790 l0 -70 51 0 c46 0 50 2 47 22 -2 18 2 22 22 23 18 0 26 6 28 21 3 18 -4 22 -38 28 -23 3 -45 4 -51 1 -5 -4 -9 5 -9 19 0 21 -5 26 -25 26 -24 0 -25 -2 -25 -70z"/>
<path d="M6768 1648 c-1 -40 -2 -83 -2 -95 0 -17 -6 -23 -22 -23 -17 0 -23 -8 -28 -41 -4 -22 -4 -44 -1 -50 4 -5 -5 -9 -19 -9 -28 0 -32 -13 -27 -97 2 -39 1 -42 -26 -45 -22 -2 -28 -8 -27 -25 0 -18 -5 -23 -23 -23 -18 0 -23 -6 -23 -24 0 -18 -5 -23 -22 -22 -18 1 -24 -5 -26 -26 -2 -20 -9 -28 -23 -28 -18 0 -20 -5 -23 -67 -1 -11 -11 -20 -26 -23 -19 -4 -24 -11 -22 -28 3 -18 -2 -22 -22 -22 -21 0 -26 -5 -26 -25 0 -17 -5 -24 -17 -23 -10 1 -33 0 -50 0 -28 -2 -33 -6 -33 -27 0 -20 -5 -25 -25 -25 -20 0 -25 -5 -25 -23 0 -16 -6 -24 -17 -24 -59 1 -73 -4 -73 -22 0 -20 -39 -31 -114 -31 -33 0 -38 -3 -33 -20 5 -19 0 -20 -188 -20 -188 0 -193 1 -188 20 5 20 -8 23 -124 24 -17 0 -23 6 -23 23 0 23 0 23 -75 28 -14 0 -19 7 -17 21 2 18 -4 22 -38 28 -23 3 -45 4 -50 1 -5 -3 -10 7 -12 22 -2 22 -8 28 -25 27 -18 0 -23 5 -23 23 0 18 -6 23 -24 23 -18 0 -25 6 -28 23 -2 14 -11 23 -25 25 -15 2 -23 10 -23 22 0 12 -8 20 -22 22 -15 2 -24 11 -26 26 -2 14 -10 22 -23 22 -14 0 -19 7 -19 25 0 20 -5 25 -25 25 -20 0 -25 5 -25 25 0 20 -5 25 -25 25 -23 0 -25 -3 -25 -50 0 -47 2 -50 25 -50 23 0 25 -3 25 -51 0 -46 2 -50 22 -47 24 3 23 6 26 -89 2 -45 5 -53 21 -53 17 0 20 -8 23 -47 3 -41 6 -48 26 -51 16 -3 22 -10 22 -29 0 -21 4 -25 23 -21 20 4 23 1 19 -19 -4 -20 0 -23 25 -23 24 0 29 -4 29 -22 -1 -18 5 -24 27 -26 18 -2 27 -9 27 -22 0 -12 10 -20 35 -24 20 -4 39 -4 44 -1 6 3 11 -7 13 -22 2 -22 8 -28 26 -26 17 2 22 -2 22 -21 0 -20 6 -25 45 -30 36 -6 45 -11 45 -27 0 -20 23 -25 106 -20 37 2 41 0 40 -21 -1 -22 2 -23 97 -26 96 -3 97 -3 97 -27 l0 -25 170 0 170 0 0 25 c0 24 2 25 70 25 67 0 70 1 70 24 0 19 6 25 28 28 22 2 27 8 25 26 -2 13 1 21 6 17 6 -3 28 -3 50 1 35 6 41 10 41 30 0 19 5 24 26 24 20 0 25 4 22 22 -2 17 2 23 17 23 73 4 75 5 75 25 0 15 7 20 25 20 20 0 25 5 25 25 0 23 3 25 50 25 47 0 50 2 50 25 0 20 5 25 26 25 21 0 25 4 21 20 -4 16 0 20 19 20 19 0 24 5 24 24 0 18 6 25 23 28 20 3 22 9 25 76 3 71 3 72 -23 72 l-25 0 0 360 0 360 -45 0 -45 0 -2 -72z"/>
<path d="M4892 1313 c2 -20 9 -29 26 -31 19 -3 22 1 22 27 0 27 -4 31 -26 31 -22 0 -25 -4 -22 -27z"/>
</g>


</svg>